999
Inkscape export via OpenSCAD DXF Export
  0
SECTION
  2
HEADER
  9
$ACADVER
  1
AC1014
  9
$HANDSEED
  5
FFFF
  9
$MEASUREMENT
 70
     1
  0
ENDSEC
  0
SECTION
  2
TABLES
  0
TABLE
  2
VPORT
  5
8
330
0
100
AcDbSymbolTable
 70
     4
  0
VPORT
  5
2E
330
8
100
AcDbSymbolTableRecord
100
AcDbViewportTableRecord
  2
*ACTIVE
 70
     0
 10
0.0
 20
0.0
 11
1.0
 21
1.0
 12
210.0
 22
148.5
 13
0.0
 23
0.0
 14
10.0
 24
10.0
 15
10.0
 25
10.0
 16
0.0
 26
0.0
 36
1.0
 17
0.0
 27
0.0
 37
0.0
 40
341.0
 41
1.24
 42
50.0
 43
0.0
 44
0.0
 50
0.0
 51
0.0
 71
     0
 72
   100
 73
     1
 74
     3
 75
     0
 76
     0
 77
     0
 78
     0
  0
ENDTAB
  0
TABLE
  2
LTYPE
  5
5
330
0
100
AcDbSymbolTable
 70
     1
  0
LTYPE
  5
14
330
5
100
AcDbSymbolTableRecord
100
AcDbLinetypeTableRecord
  2
BYBLOCK
 70
     0
  3

 72
    65
 73
     0
 40
0.0
  0
LTYPE
  5
15
330
5
100
AcDbSymbolTableRecord
100
AcDbLinetypeTableRecord
  2
BYLAYER
 70
     0
  3

 72
    65
 73
     0
 40
0.0
  0
LTYPE
  5
16
330
5
100
AcDbSymbolTableRecord
100
AcDbLinetypeTableRecord
  2
CONTINUOUS
 70
     0
  3
Solid line
 72
    65
 73
     0
 40
0.0
  0
ENDTAB
  0
TABLE
0
TABLE
2
LAYER
5
2
330
0
100
AcDbSymbolTable
70
1
0
LAYER
5
10
330
2
100
AcDbSymbolTableRecord
100
AcDbLayerTableRecord
2
Layer_1
70
0
62
7
6
CONTINUOUS
0
ENDTAB
0
ENDSEC
  0
ENDTAB
  0
TABLE
  2
STYLE
  5
3
330
0
100
AcDbSymbolTable
 70
     1
  0
STYLE
  5
11
330
3
100
AcDbSymbolTableRecord
100
AcDbTextStyleTableRecord
  2
STANDARD
 70
     0
 40
0.0
 41
1.0
 50
0.0
 71
     0
 42
2.5
  3
txt
  4

  0
ENDTAB
  0
TABLE
  2
VIEW
  5
6
330
0
100
AcDbSymbolTable
 70
     0
  0
ENDTAB
  0
TABLE
  2
UCS
  5
7
330
0
100
AcDbSymbolTable
 70
     0
  0
ENDTAB
  0
TABLE
  2
APPID
  5
9
330
0
100
AcDbSymbolTable
 70
     2
  0
APPID
  5
12
330
9
100
AcDbSymbolTableRecord
100
AcDbRegAppTableRecord
  2
ACAD
 70
     0
  0
ENDTAB
  0
TABLE
  2
DIMSTYLE
  5
A
330
0
100
AcDbSymbolTable
 70
     1
  0
DIMSTYLE
105
27
330
A
100
AcDbSymbolTableRecord
100
AcDbDimStyleTableRecord
  2
ISO-25
 70
     0
  3

  4

  5

  6

  7

 40
1.0
 41
2.5
 42
0.625
 43
3.75
 44
1.25
 45
0.0
 46
0.0
 47
0.0
 48
0.0
140
2.5
141
2.5
142
0.0
143
0.03937007874016
144
1.0
145
0.0
146
1.0
147
0.625
 71
     0
 72
     0
 73
     0
 74
     0
 75
     0
 76
     0
 77
     1
 78
     8
170
     0
171
     3
172
     1
173
     0
174
     0
175
     0
176
     0
177
     0
178
     0
270
     2
271
     2
272
     2
273
     2
274
     3
340
11
275
     0
280
     0
281
     0
282
     0
283
     0
284
     8
285
     0
286
     0
287
     3
288
     0
  0
ENDTAB
  0
TABLE
  2
BLOCK_RECORD
  5
1
330
0
100
AcDbSymbolTable
 70
     1
  0
BLOCK_RECORD
  5
1F
330
1
100
AcDbSymbolTableRecord
100
AcDbBlockTableRecord
  2
*MODEL_SPACE
  0
BLOCK_RECORD
  5
1B
330
1
100
AcDbSymbolTableRecord
100
AcDbBlockTableRecord
  2
*PAPER_SPACE
  0
ENDTAB
  0
ENDSEC
  0
SECTION
  2
BLOCKS
  0
BLOCK
  5
20
330
1F
100
AcDbEntity
  8
0
100
AcDbBlockBegin
  2
*MODEL_SPACE
 70
     0
 10
0.0
 20
0.0
 30
0.0
  3
*MODEL_SPACE
  1

  0
ENDBLK
  5
21
330
1F
100
AcDbEntity
  8
0
100
AcDbBlockEnd
  0
BLOCK
  5
1C
330
1B
100
AcDbEntity
 67
     1
  8
0
100
AcDbBlockBegin
  2
*PAPER_SPACE
  1

  0
ENDBLK
  5
1D
330
1B
100
AcDbEntity
 67
     1
  8
0
100
AcDbBlockEnd
  0
ENDSEC
  0
SECTION
  2
ENTITIES
0
DIMENSION
5
83
100
AcDbEntity
62
256
370
-1
6
ByLayer
1
total_width
3
Standard
70
0
71
5
72
1
41
1.0
100
AcDbAlignedDimension
13
13.555155
23
0.000000
33
0.0
14
522.739014
24
0.000000
34
0.0
50
0.000000
100
AcDbRotatedDimension
0
DIMENSION
5
83
100
AcDbEntity
62
256
370
-1
6
ByLayer
1
total_minx
3
Standard
70
0
71
5
72
1
41
1.0
100
AcDbAlignedDimension
13
13.555155
23
0.000000
33
0.0
14
0.000000
24
0.000000
34
0.0
50
0.000000
100
AcDbRotatedDimension
0
DIMENSION
5
83
100
AcDbEntity
62
256
370
-1
6
ByLayer
1
total_maxx
3
Standard
70
0
71
5
72
1
41
1.0
100
AcDbAlignedDimension
13
0.000000
23
0.000000
33
0.0
14
522.739014
24
0.000000
34
0.0
50
0.000000
100
AcDbRotatedDimension
0
DIMENSION
5
83
100
AcDbEntity
62
256
370
-1
6
ByLayer
1
total_height
3
Standard
70
0
71
5
72
1
41
1.0
100
AcDbAlignedDimension
13
0.000000
23
39.526662
33
0.0
14
0.000000
24
527.663922
34
0.0
50
90.000000
100
AcDbRotatedDimension
0
DIMENSION
5
83
100
AcDbEntity
62
256
370
-1
6
ByLayer
1
total_miny
3
Standard
70
0
71
5
72
1
41
1.0
100
AcDbAlignedDimension
13
39.526662
23
0.000000
33
0.0
14
0.000000
24
0.000000
34
0.0
50
0.000000
100
AcDbRotatedDimension
0
DIMENSION
5
83
100
AcDbEntity
62
256
370
-1
6
ByLayer
1
total_maxy
3
Standard
70
0
71
5
72
1
41
1.0
100
AcDbAlignedDimension
13
0.000000
23
0.000000
33
0.0
14
527.663922
24
0.000000
34
0.0
50
0.000000
100
AcDbRotatedDimension
0
DIMENSION
8
Layer_1
5
83
100
AcDbEntity
62
256
370
-1
6
ByLayer
1
Layer_1_width
3
Standard
70
0
71
5
72
1
41
1.0
100
AcDbAlignedDimension
13
13.555155
23
0.000000
33
0.0
14
522.739014
24
0.000000
34
0.0
50
0.000000
100
AcDbRotatedDimension
0
DIMENSION
8
Layer_1
5
83
100
AcDbEntity
62
256
370
-1
6
ByLayer
1
Layer_1_minx
3
Standard
70
0
71
5
72
1
41
1.0
100
AcDbAlignedDimension
13
13.555155
23
0.000000
33
0.0
14
0.000000
24
0.000000
34
0.0
50
0.000000
100
AcDbRotatedDimension
0
DIMENSION
8
Layer_1
5
83
100
AcDbEntity
62
256
370
-1
6
ByLayer
1
Layer_1_maxx
3
Standard
70
0
71
5
72
1
41
1.0
100
AcDbAlignedDimension
13
0.000000
23
0.000000
33
0.0
14
522.739014
24
0.000000
34
0.0
50
0.000000
100
AcDbRotatedDimension
0
DIMENSION
8
Layer_1
5
83
100
AcDbEntity
62
256
370
-1
6
ByLayer
1
Layer_1_height
3
Standard
70
0
71
5
72
1
41
1.0
100
AcDbAlignedDimension
13
0.000000
23
39.526662
33
0.0
14
0.000000
24
527.663922
34
0.0
50
90.000000
100
AcDbRotatedDimension
0
DIMENSION
8
Layer_1
5
83
100
AcDbEntity
62
256
370
-1
6
ByLayer
1
Layer_1_miny
3
Standard
70
0
71
5
72
1
41
1.0
100
AcDbAlignedDimension
13
39.526662
23
0.000000
33
0.0
14
0.000000
24
0.000000
34
0.0
50
0.000000
100
AcDbRotatedDimension
0
DIMENSION
8
Layer_1
5
83
100
AcDbEntity
62
256
370
-1
6
ByLayer
1
Layer_1_maxy
3
Standard
70
0
71
5
72
1
41
1.0
100
AcDbAlignedDimension
13
0.000000
23
0.000000
33
0.0
14
527.663922
24
0.000000
34
0.0
50
0.000000
100
AcDbRotatedDimension
62
0
0
LWPOLYLINE
100
AcDbPolyline
8
Layer_1
90
922
70
0
10
261.476795
20
40.443884
30
0.0
10
258.951904
20
42.400694
30
0.0
10
256.852887
20
44.466136
30
0.0
10
255.138860
20
46.686148
30
0.0
10
253.768939
20
49.106667
30
0.0
10
253.276381
20
50.214863
30
0.0
10
253.015794
20
51.196198
30
0.0
10
252.902009
20
54.610000
30
0.0
10
253.031256
20
57.918057
30
0.0
10
253.454572
20
60.341538
30
0.0
10
253.807480
20
62.043783
30
0.0
10
253.703802
20
62.881538
30
0.0
10
252.244191
20
63.881882
30
0.0
10
249.147719
20
65.616667
30
0.0
10
244.731125
20
68.027968
30
0.0
10
241.489641
20
69.990402
30
0.0
10
239.060522
20
71.741523
30
0.0
10
237.081026
20
73.518889
30
0.0
10
235.278724
20
75.500943
30
0.0
10
233.596167
20
77.653205
30
0.0
10
232.352554
20
79.535569
30
0.0
10
231.867083
20
80.707936
30
0.0
10
231.710951
20
81.260604
30
0.0
10
231.335574
20
81.873852
30
0.0
10
230.804093
20
82.530216
30
0.0
10
226.185019
20
81.209332
30
0.0
10
217.897083
20
79.024932
30
0.0
10
212.052166
20
77.493026
30
0.0
10
210.057012
20
76.854982
30
0.0
10
209.077639
20
76.419654
30
0.0
10
208.831939
20
76.031196
30
0.0
10
208.737297
20
75.461894
30
0.0
10
208.796838
20
74.819592
30
0.0
10
209.013687
20
74.212140
30
0.0
10
210.715544
20
71.805574
30
0.0
10
212.271387
20
69.515254
30
0.0
10
213.394658
20
67.266894
30
0.0
10
214.164753
20
64.865504
30
0.0
10
214.661067
20
62.116095
30
0.0
10
214.795839
20
60.404283
30
0.0
10
214.597257
20
59.624609
30
0.0
10
213.914490
20
59.092518
30
0.0
10
212.653126
20
58.438510
30
0.0
10
208.442639
20
56.786893
30
0.0
10
204.074911
20
55.167361
30
0.0
10
202.929141
20
54.779085
30
0.0
10
201.624430
20
54.517953
30
0.0
10
198.578941
20
54.375763
30
0.0
10
195.019942
20
54.738069
30
0.0
10
191.028935
20
55.602152
30
0.0
10
185.606078
20
57.276178
30
0.0
10
181.466089
20
58.922327
30
0.0
10
177.398195
20
60.954073
30
0.0
10
168.667086
20
65.855624
30
0.0
10
163.599380
20
69.037581
30
0.0
10
161.961728
20
70.263897
30
0.0
10
160.553197
20
71.503512
30
0.0
10
158.754824
20
73.361180
30
0.0
10
158.339170
20
73.963617
30
0.0
10
158.207083
20
74.396290
30
0.0
10
158.280867
20
74.872882
30
0.0
10
158.458261
20
75.071111
30
0.0
10
160.363261
20
73.854846
30
0.0
10
164.167116
20
71.343682
30
0.0
10
168.236612
20
69.086984
30
0.0
10
171.627456
20
67.091588
30
0.0
10
173.044412
20
66.279000
30
0.0
10
174.449452
20
65.763422
30
0.0
10
176.441846
20
65.053863
30
0.0
10
179.271021
20
63.774856
30
0.0
10
182.657078
20
62.292269
30
0.0
10
185.903243
20
61.533899
30
0.0
10
191.085069
20
60.404333
30
0.0
10
192.285556
20
60.111813
30
0.0
10
193.628230
20
59.937318
30
0.0
10
198.102807
20
59.831111
30
0.0
10
203.145892
20
59.831111
30
0.0
10
204.458762
20
60.794844
30
0.0
10
205.759551
20
61.799902
30
0.0
10
206.437736
20
62.524234
30
0.0
10
206.626108
20
63.179209
30
0.0
10
206.457460
20
63.976194
30
0.0
10
204.457774
20
68.801262
30
0.0
10
202.856977
20
72.627875
30
0.0
10
201.878732
20
75.670375
30
0.0
10
201.312671
20
78.764722
30
0.0
10
200.948425
20
82.746878
30
0.0
10
200.774435
20
85.201534
30
0.0
10
198.329093
20
87.154681
30
0.0
10
195.436354
20
89.657350
30
0.0
10
191.915367
20
92.931714
30
0.0
10
187.946956
20
96.755627
30
0.0
10
185.988700
20
96.349989
30
0.0
10
183.501724
20
95.759458
30
0.0
10
181.632018
20
95.111507
30
0.0
10
180.150292
20
94.306742
30
0.0
10
178.827255
20
93.245771
30
0.0
10
177.687798
20
92.092134
30
0.0
10
176.900732
20
91.013548
30
0.0
10
176.362411
20
89.833384
30
0.0
10
175.969191
20
88.375010
30
0.0
10
175.643069
20
87.336471
30
0.0
10
175.294087
20
86.924444
30
0.0
10
174.728732
20
87.264647
30
0.0
10
173.831950
20
88.128623
30
0.0
10
171.930986
20
90.488121
30
0.0
10
171.245574
20
91.968182
30
0.0
10
170.619132
20
93.983104
30
0.0
10
169.454288
20
98.160276
30
0.0
10
169.080481
20
99.687447
30
0.0
10
169.010014
20
100.841387
30
0.0
10
169.516557
20
103.209237
30
0.0
10
170.336578
20
106.239155
30
0.0
10
171.209781
20
109.035498
30
0.0
10
171.875868
20
110.702626
30
0.0
10
175.555396
20
115.570000
30
0.0
10
177.690474
20
118.408628
30
0.0
10
179.439275
20
121.184547
30
0.0
10
180.834921
20
123.956195
30
0.0
10
181.910533
20
126.782012
30
0.0
10
183.590094
20
130.742718
30
0.0
10
184.464947
20
132.783425
30
0.0
10
184.857582
20
134.770707
30
0.0
10
185.636797
20
139.135556
30
0.0
10
185.938520
20
140.610867
30
0.0
10
186.109805
20
142.246548
30
0.0
10
186.186341
20
148.025556
30
0.0
10
186.099194
20
152.897244
30
0.0
10
185.930788
20
155.494849
30
0.0
10
185.558716
20
156.258251
30
0.0
10
184.734667
20
156.670294
30
0.0
10
183.233507
20
156.781649
30
0.0
10
180.830101
20
156.642985
30
0.0
10
178.011947
20
156.245355
30
0.0
10
175.571342
20
155.274066
30
0.0
10
174.287222
20
154.613314
30
0.0
10
173.315152
20
153.965282
30
0.0
10
171.370746
20
151.971079
30
0.0
10
169.880010
20
149.995488
30
0.0
10
168.975103
20
148.343959
30
0.0
10
168.372417
20
145.622303
30
0.0
10
167.675667
20
141.111111
30
0.0
10
166.622387
20
133.846412
30
0.0
10
165.584457
20
128.169917
30
0.0
10
164.539140
20
123.973850
30
0.0
10
163.463698
20
121.150436
30
0.0
10
162.194813
20
119.024183
30
0.0
10
160.363254
20
116.405413
30
0.0
10
158.326643
20
113.779055
30
0.0
10
156.442602
20
111.630037
30
0.0
10
154.995543
20
110.275042
30
0.0
10
154.651013
20
110.200965
30
0.0
10
154.355823
20
110.410329
30
0.0
10
153.947821
20
111.417647
30
0.0
10
153.661782
20
113.644736
30
0.0
10
153.290349
20
116.983623
30
0.0
10
152.702257
20
117.741518
30
0.0
10
151.478676
20
118.630675
30
0.0
10
149.972176
20
119.432695
30
0.0
10
148.535328
20
119.929176
30
0.0
10
146.166443
20
120.680025
30
0.0
10
142.543750
20
122.048157
30
0.0
10
138.642233
20
123.473270
30
0.0
10
135.911528
20
124.168916
30
0.0
10
134.707144
20
124.405330
30
0.0
10
133.482501
20
124.793484
30
0.0
10
130.125972
20
126.343100
30
0.0
10
125.817118
20
128.673415
30
0.0
10
122.676124
20
130.766199
30
0.0
10
120.330256
20
132.909190
30
0.0
10
118.406779
20
135.390128
30
0.0
10
117.540959
20
136.806082
30
0.0
10
116.865808
20
138.206548
30
0.0
10
116.373856
20
139.642783
30
0.0
10
116.057632
20
141.166042
30
0.0
10
115.909668
20
142.827582
30
0.0
10
115.922493
20
144.678658
30
0.0
10
116.400631
20
149.154444
30
0.0
10
116.711901
20
151.849307
30
0.0
10
116.683361
20
153.352105
30
0.0
10
116.079123
20
154.391296
30
0.0
10
114.943433
20
155.750994
30
0.0
10
112.715683
20
158.467778
30
0.0
10
111.879272
20
159.646497
30
0.0
10
110.760346
20
160.835523
30
0.0
10
106.278195
20
164.568096
30
0.0
10
103.268286
20
167.057447
30
0.0
10
101.007437
20
169.189351
30
0.0
10
99.282523
20
171.184486
30
0.0
10
97.880418
20
173.263532
30
0.0
10
95.579228
20
177.879184
30
0.0
10
93.122631
20
183.984420
30
0.0
10
91.561512
20
187.733171
30
0.0
10
89.162659
20
193.015531
30
0.0
10
86.556618
20
198.759136
30
0.0
10
84.457586
20
203.891971
30
0.0
10
82.816299
20
208.627678
30
0.0
10
81.583489
20
213.179900
30
0.0
10
80.709891
20
217.762279
30
0.0
10
80.146238
20
222.588458
30
0.0
10
79.843265
20
227.872078
30
0.0
10
79.751705
20
233.826784
30
0.0
10
79.847575
20
239.809020
30
0.0
10
80.022246
20
241.371068
30
0.0
10
80.327325
20
242.691610
30
0.0
10
81.586770
20
248.202252
30
0.0
10
82.881994
20
253.221818
30
0.0
10
84.762479
20
258.408258
30
0.0
10
87.109821
20
263.474435
30
0.0
10
89.805617
20
268.133209
30
0.0
10
91.206537
20
270.193798
30
0.0
10
92.220339
20
271.388353
30
0.0
10
93.032909
20
271.889456
30
0.0
10
93.830134
20
271.869690
30
0.0
10
94.251028
20
271.647076
30
0.0
10
94.378097
20
270.934000
30
0.0
10
93.708468
20
265.994444
30
0.0
10
92.252540
20
255.713844
30
0.0
10
91.602639
20
249.279269
30
0.0
10
91.698413
20
248.053108
30
0.0
10
92.049661
20
246.980632
30
0.0
10
92.752271
20
245.862532
30
0.0
10
93.902129
20
244.499497
30
0.0
10
94.862745
20
243.310817
30
0.0
10
95.096336
20
242.798464
30
0.0
10
95.162971
20
242.259513
30
0.0
10
94.787938
20
240.858050
30
0.0
10
93.722777
20
238.618889
30
0.0
10
92.605272
20
236.163861
30
0.0
10
91.556238
20
233.490763
30
0.0
10
90.778238
20
231.154924
30
0.0
10
90.473835
20
229.711673
30
0.0
10
90.877219
20
227.639457
30
0.0
10
91.830897
20
224.117285
30
0.0
10
92.949839
20
220.475928
30
0.0
10
93.849015
20
218.046159
30
0.0
10
94.536593
20
216.810458
30
0.0
10
95.399519
20
215.584302
30
0.0
10
97.523298
20
213.278992
30
0.0
10
99.964117
20
211.366963
30
0.0
10
101.223342
20
210.632409
30
0.0
10
102.465739
20
210.084952
30
0.0
10
105.267938
20
208.786723
30
0.0
10
106.251244
20
208.134796
30
0.0
10
106.725037
20
207.614943
30
0.0
10
106.357972
20
206.564382
30
0.0
10
105.282119
20
204.542334
30
0.0
10
103.307370
20
200.640936
30
0.0
10
102.577610
20
198.731137
30
0.0
10
102.012296
20
196.819721
30
0.0
10
101.605956
20
194.885029
30
0.0
10
101.353116
20
192.905399
30
0.0
10
101.286050
20
188.724681
30
0.0
10
101.653193
20
184.945691
30
0.0
10
102.453724
20
181.694197
30
0.0
10
103.855292
20
178.477793
30
0.0
10
106.025549
20
174.804070
30
0.0
10
109.523750
20
168.790310
30
0.0
10
110.933661
20
166.309948
30
0.0
10
112.201072
20
164.531523
30
0.0
10
113.456535
20
163.299246
30
0.0
10
114.830600
20
162.457328
30
0.0
10
117.520159
20
161.462354
30
0.0
10
120.411788
20
160.816675
30
0.0
10
122.983107
20
160.602504
30
0.0
10
123.985407
20
160.682927
30
0.0
10
124.711737
20
160.902057
30
0.0
10
126.850840
20
162.379096
30
0.0
10
128.373457
20
163.538521
30
0.0
10
128.187247
20
168.058705
30
0.0
10
127.935639
20
171.831402
30
0.0
10
127.592209
20
174.554444
30
0.0
10
127.227120
20
177.747413
30
0.0
10
127.159404
20
181.966955
30
0.0
10
127.379719
20
186.667212
30
0.0
10
127.878721
20
191.302330
30
0.0
10
128.543732
20
195.362146
30
0.0
10
129.137009
20
198.125249
30
0.0
10
130.538978
20
201.501707
30
0.0
10
133.302588
20
207.185126
30
0.0
10
136.950827
20
214.228683
30
0.0
10
141.006683
20
221.685556
30
0.0
10
145.057030
20
229.062698
30
0.0
10
148.220089
20
235.104213
30
0.0
10
150.621937
20
240.059233
30
0.0
10
152.388649
20
244.176889
30
0.0
10
153.805493
20
247.496217
30
0.0
10
154.915949
20
249.653411
30
0.0
10
156.352234
20
251.827340
30
0.0
10
156.896274
20
252.671665
30
0.0
10
156.046305
20
253.431096
30
0.0
10
155.017571
20
254.127288
30
0.0
10
153.215793
20
254.996738
30
0.0
10
146.353750
20
257.665841
30
0.0
10
141.051472
20
259.754285
30
0.0
10
139.206310
20
261.110662
30
0.0
10
136.024068
20
263.749709
30
0.0
10
129.460238
20
269.628564
30
0.0
10
124.480399
20
275.025556
30
0.0
10
120.390237
20
279.541111
30
0.0
10
118.240437
20
282.010556
30
0.0
10
117.501711
20
282.932051
30
0.0
10
117.257389
20
283.045416
30
0.0
10
117.092345
20
282.949316
30
0.0
10
116.987840
20
282.195095
30
0.0
10
117.163696
20
280.802133
30
0.0
10
118.258487
20
276.630967
30
0.0
10
120.180715
20
271.497778
30
0.0
10
121.530305
20
268.601675
30
0.0
10
123.010727
20
265.855676
30
0.0
10
124.602633
20
263.293213
30
0.0
10
126.286678
20
260.947718
30
0.0
10
127.672142
20
258.954157
30
0.0
10
127.936701
20
258.293180
30
0.0
10
128.009306
20
257.678654
30
0.0
10
127.826228
20
256.450987
30
0.0
10
127.386039
20
256.589653
30
0.0
10
126.584789
20
257.180080
30
0.0
10
124.298422
20
258.847308
30
0.0
10
121.424914
20
261.050291
30
0.0
10
117.858901
20
264.334883
30
0.0
10
114.494967
20
267.826363
30
0.0
10
112.227693
20
270.650010
30
0.0
10
110.966585
20
272.857187
30
0.0
10
109.826662
20
275.373403
30
0.0
10
108.817644
20
278.160471
30
0.0
10
107.949250
20
281.180201
30
0.0
10
107.231199
20
284.394406
30
0.0
10
106.673209
20
287.764896
30
0.0
10
106.285001
20
291.253482
30
0.0
10
106.076293
20
294.821977
30
0.0
10
105.920563
20
299.660592
30
0.0
10
106.826609
20
301.244226
30
0.0
10
107.607751
20
303.018638
30
0.0
10
108.117832
20
305.207134
30
0.0
10
108.457757
20
306.953714
30
0.0
10
108.877200
20
308.209326
30
0.0
10
109.480105
20
309.202613
30
0.0
10
110.370417
20
310.162222
30
0.0
10
111.215583
20
311.057888
30
0.0
10
111.789345
20
311.964356
30
0.0
10
112.211385
20
313.130756
30
0.0
10
112.601383
20
314.806217
30
0.0
10
113.055153
20
316.515408
30
0.0
10
113.747968
20
318.186227
30
0.0
10
114.788657
20
320.039931
30
0.0
10
116.286049
20
322.297778
30
0.0
10
117.833746
20
324.862931
30
0.0
10
119.124724
20
328.198551
30
0.0
10
120.550724
20
333.558360
30
0.0
10
122.503489
20
342.196081
30
0.0
10
123.771415
20
347.784514
30
0.0
10
124.786935
20
351.691078
30
0.0
10
125.755633
20
354.624456
30
0.0
10
126.883098
20
357.293333
30
0.0
10
128.005288
20
360.105350
30
0.0
10
128.710854
20
362.655556
30
0.0
10
129.045936
20
364.043977
30
0.0
10
129.567155
20
365.553223
30
0.0
10
131.531044
20
369.861902
30
0.0
10
133.400804
20
373.492872
30
0.0
10
135.099680
20
376.184848
30
0.0
10
137.124576
20
378.622311
30
0.0
10
139.972395
20
381.489740
30
0.0
10
144.997440
20
386.007725
30
0.0
10
147.173376
20
387.705310
30
0.0
10
149.078031
20
388.999657
30
0.0
10
150.676236
20
389.869045
30
0.0
10
151.932823
20
390.291748
30
0.0
10
152.812624
20
390.246045
30
0.0
10
153.100240
20
390.040752
30
0.0
10
153.280471
20
389.710210
30
0.0
10
153.261785
20
389.294989
30
0.0
10
152.878509
20
388.697380
30
0.0
10
150.492257
20
386.314476
30
0.0
10
147.898649
20
383.675781
30
0.0
10
147.135369
20
382.635010
30
0.0
10
146.509847
20
381.517454
30
0.0
10
145.571624
20
379.223743
30
0.0
10
145.546802
20
378.650858
30
0.0
10
145.818036
20
378.460000
30
0.0
10
151.892305
20
380.731663
30
0.0
10
158.509299
20
383.226169
30
0.0
10
164.056393
20
385.038396
30
0.0
10
169.029383
20
386.313862
30
0.0
10
173.924067
20
387.198085
30
0.0
10
177.160840
20
387.582528
30
0.0
10
180.047612
20
387.743904
30
0.0
10
182.469754
20
387.680105
30
0.0
10
184.312639
20
387.389026
30
0.0
10
187.835083
20
386.122376
30
0.0
10
190.204903
20
385.233333
30
0.0
10
190.897995
20
384.868704
30
0.0
10
192.052456
20
383.883818
30
0.0
10
195.045973
20
380.707279
30
0.0
10
196.691290
20
378.920823
30
0.0
10
197.633387
20
378.177778
30
0.0
10
198.311210
20
378.543933
30
0.0
10
199.321160
20
379.424269
30
0.0
10
200.567651
20
380.670731
30
0.0
10
200.126651
20
381.726186
30
0.0
10
197.724686
20
386.053592
30
0.0
10
196.212299
20
388.727176
30
0.0
10
195.329833
20
390.560484
30
0.0
10
195.032088
20
392.378444
30
0.0
10
194.893429
20
395.091699
30
0.0
10
194.931422
20
397.761042
30
0.0
10
195.163632
20
399.447266
30
0.0
10
196.980906
20
401.545665
30
0.0
10
200.801599
20
405.512269
30
0.0
10
204.802654
20
409.494415
30
0.0
10
207.161011
20
411.639441
30
0.0
10
207.869146
20
411.943812
30
0.0
10
208.613496
20
411.507017
30
0.0
10
209.715941
20
410.915556
30
0.0
10
210.140428
20
411.350795
30
0.0
10
210.668780
20
412.397222
30
0.0
10
211.688470
20
414.735538
30
0.0
10
212.504431
20
415.891697
30
0.0
10
212.931782
20
416.102252
30
0.0
10
213.423124
20
416.108207
30
0.0
10
214.751011
20
415.627577
30
0.0
10
216.350590
20
414.895270
30
0.0
10
216.770057
20
415.535443
30
0.0
10
217.119413
20
416.495841
30
0.0
10
217.370344
20
417.905921
30
0.0
10
217.653071
20
419.417959
30
0.0
10
217.931180
20
419.725622
30
0.0
10
218.401273
20
419.932558
30
0.0
10
219.529951
20
420.141842
30
0.0
10
221.049957
20
420.228889
30
0.0
10
222.078694
20
420.203086
30
0.0
10
222.765664
20
420.066056
30
0.0
10
223.350451
20
419.728368
30
0.0
10
224.072642
20
419.100590
30
0.0
10
225.176396
20
417.866140
30
0.0
10
226.160734
20
416.281796
30
0.0
10
227.065230
20
414.272257
30
0.0
10
227.929463
20
411.762222
30
0.0
10
232.743129
20
398.279823
30
0.0
10
237.369406
20
385.340066
30
0.0
10
240.396657
20
375.726513
30
0.0
10
241.338023
20
372.069364
30
0.0
10
241.912482
20
369.126527
30
0.0
10
242.130983
20
366.858924
30
0.0
10
242.004477
20
365.227475
30
0.0
10
241.145531
20
363.047214
30
0.0
10
239.430752
20
359.935798
30
0.0
10
237.095007
20
356.285314
30
0.0
10
234.373160
20
352.487851
30
0.0
10
230.423200
20
347.185770
30
0.0
10
228.188229
20
343.824183
30
0.0
10
227.564299
20
342.611428
30
0.0
10
227.189640
20
341.572221
30
0.0
10
226.948825
20
339.599016
30
0.0
10
226.957260
20
338.420343
30
0.0
10
227.077053
20
337.686445
30
0.0
10
227.404215
20
337.117404
30
0.0
10
228.034760
20
336.433301
30
0.0
10
229.100858
20
335.496828
30
0.0
10
230.110165
20
334.838802
30
0.0
10
231.126977
20
334.522780
30
0.0
10
232.365065
20
334.870185
30
0.0
10
233.981940
20
335.757711
30
0.0
10
236.063361
20
337.201877
30
0.0
10
238.475179
20
338.908997
30
0.0
10
240.886341
20
340.428749
30
0.0
10
245.874914
20
343.506953
30
0.0
10
250.384583
20
346.680677
30
0.0
10
254.013883
20
349.647052
30
0.0
10
255.372936
20
350.957838
30
0.0
10
256.361348
20
352.103210
30
0.0
10
257.617263
20
353.963429
30
0.0
10
258.721826
20
355.959283
30
0.0
10
259.610913
20
357.962165
30
0.0
10
260.220398
20
359.843465
30
0.0
10
261.491357
20
364.207778
30
0.0
10
262.115280
20
366.665245
30
0.0
10
262.473858
20
369.005556
30
0.0
10
262.523491
20
371.819370
30
0.0
10
262.312465
20
375.029395
30
0.0
10
261.873088
20
378.313064
30
0.0
10
261.237668
20
381.347811
30
0.0
10
260.102697
20
385.191188
30
0.0
10
258.633526
20
389.286108
30
0.0
10
256.913667
20
393.417149
30
0.0
10
255.026634
20
397.368889
30
0.0
10
253.814305
20
399.851387
30
0.0
10
253.127642
20
401.600715
30
0.0
10
252.900587
20
402.832392
30
0.0
10
253.067081
20
403.761939
30
0.0
10
253.389576
20
404.565556
30
0.0
10
253.630594
20
403.696435
30
0.0
10
254.540122
20
402.277031
30
0.0
10
256.388413
20
400.084885
30
0.0
10
260.716552
20
395.001772
30
0.0
10
264.324727
20
390.218185
30
0.0
10
265.238997
20
388.577327
30
0.0
10
266.148335
20
386.549296
30
0.0
10
267.511157
20
383.365008
30
0.0
10
268.430581
20
380.451078
30
0.0
10
269.739499
20
376.110528
30
0.0
10
270.219782
20
374.698858
30
0.0
10
270.476015
20
373.390298
30
0.0
10
270.619355
20
368.441111
30
0.0
10
270.652799
20
363.078889
30
0.0
10
269.569884
20
361.049203
30
0.0
10
268.987833
20
359.887641
30
0.0
10
268.641140
20
358.927425
30
0.0
10
268.339395
20
356.430975
30
0.0
10
268.191793
20
353.842433
30
0.0
10
269.714438
20
354.045181
30
0.0
10
271.301577
20
354.395503
30
0.0
10
273.167304
20
355.003608
30
0.0
10
274.944834
20
355.734670
30
0.0
10
276.267384
20
356.453863
30
0.0
10
277.206916
20
357.268407
30
0.0
10
278.260829
20
358.536282
30
0.0
10
281.045717
20
362.881164
30
0.0
10
283.061575
20
366.662857
30
0.0
10
283.606523
20
368.012607
30
0.0
10
283.795978
20
368.899130
30
0.0
10
284.839692
20
371.555843
30
0.0
10
286.472263
20
374.783463
30
0.0
10
287.179695
20
376.326125
30
0.0
10
287.863760
20
378.424327
30
0.0
10
289.084032
20
382.168090
30
0.0
10
289.554092
20
383.402446
30
0.0
10
289.853871
20
384.918389
30
0.0
10
290.297701
20
391.535996
30
0.0
10
290.463778
20
397.647487
30
0.0
10
290.290363
20
403.638608
30
0.0
10
289.749858
20
410.528813
30
0.0
10
289.393640
20
412.142910
30
0.0
10
288.909252
20
413.017535
30
0.0
10
288.391519
20
414.048317
30
0.0
10
287.883290
20
415.713333
30
0.0
10
286.175725
20
421.525156
30
0.0
10
284.363047
20
426.516049
30
0.0
10
283.593529
20
427.742114
30
0.0
10
282.637343
20
428.796566
30
0.0
10
280.758120
20
430.109627
30
0.0
10
278.146551
20
431.552944
30
0.0
10
275.207603
20
432.921366
30
0.0
10
272.346245
20
434.009744
30
0.0
10
267.900871
20
435.671022
30
0.0
10
261.996309
20
438.099000
30
0.0
10
256.705587
20
440.316854
30
0.0
10
252.925525
20
441.765424
30
0.0
10
250.147440
20
442.623636
30
0.0
10
247.862649
20
443.070415
30
0.0
10
243.738047
20
443.326510
30
0.0
10
237.967663
20
443.381957
30
0.0
10
232.508587
20
443.250077
30
0.0
10
229.317911
20
442.944191
30
0.0
10
226.726917
20
442.335932
30
0.0
10
226.110903
20
442.321259
30
0.0
10
225.824621
20
442.483294
30
0.0
10
225.839648
20
442.663931
30
0.0
10
226.065056
20
442.899395
30
0.0
10
227.105420
20
443.514178
30
0.0
10
231.253137
20
445.174779
30
0.0
10
234.820499
20
446.313726
30
0.0
10
236.564205
20
446.662687
30
0.0
10
238.703469
20
446.896471
30
0.0
10
245.435287
20
447.114002
30
0.0
10
257.549193
20
447.157306
30
0.0
10
276.316971
20
447.181097
30
0.0
10
280.268082
20
446.143417
30
0.0
10
292.262532
20
443.219352
30
0.0
10
304.890001
20
440.067689
30
0.0
10
309.260942
20
438.820744
30
0.0
10
311.942254
20
437.899677
30
0.0
10
313.638572
20
437.263516
30
0.0
10
315.478037
20
436.810323
30
0.0
10
321.855761
20
436.023317
30
0.0
10
328.599860
20
435.233483
30
0.0
10
333.325865
20
434.209063
30
0.0
10
335.724918
20
433.469402
30
0.0
10
338.230851
20
432.487921
30
0.0
10
340.805319
20
431.286549
30
0.0
10
343.409979
20
429.887216
30
0.0
10
346.006486
20
428.311854
30
0.0
10
348.556495
20
426.582392
30
0.0
10
351.021662
20
424.720761
30
0.0
10
353.363643
20
422.748891
30
0.0
10
355.617599
20
420.918412
30
0.0
10
356.536146
20
420.385796
30
0.0
10
357.399721
20
420.090522
30
0.0
10
358.271308
20
420.019287
30
0.0
10
359.213894
20
420.158786
30
0.0
10
361.564005
20
421.016769
30
0.0
10
363.344909
20
421.696380
30
0.0
10
364.822077
20
422.068445
30
0.0
10
365.872757
20
422.112744
30
0.0
10
366.199806
20
422.005664
30
0.0
10
366.374200
20
421.809060
30
0.0
10
366.401187
20
421.341216
30
0.0
10
366.052082
20
420.807315
30
0.0
10
363.814106
20
419.107002
30
0.0
10
361.769069
20
417.787478
30
0.0
10
360.271663
20
417.014341
30
0.0
10
358.987062
20
416.650784
30
0.0
10
357.580438
20
416.560000
30
0.0
10
356.027321
20
416.658107
30
0.0
10
354.686976
20
417.108338
30
0.0
10
353.098632
20
418.144555
30
0.0
10
350.801517
20
420.000622
30
0.0
10
346.826567
20
423.224930
30
0.0
10
343.803520
20
425.424140
30
0.0
10
341.426353
20
426.800896
30
0.0
10
339.389043
20
427.557842
30
0.0
10
336.392548
20
428.570122
30
0.0
10
333.850748
20
429.393380
30
0.0
10
330.501117
20
430.261732
30
0.0
10
327.131843
20
430.988101
30
0.0
10
324.531115
20
431.385413
30
0.0
10
322.064080
20
431.429867
30
0.0
10
319.255309
20
431.252935
30
0.0
10
314.538075
20
430.474808
30
0.0
10
312.382785
20
429.900985
30
0.0
10
310.350479
20
429.199106
30
0.0
10
308.431732
20
428.365506
30
0.0
10
306.617119
20
427.396523
30
0.0
10
304.897215
20
426.288495
30
0.0
10
303.262594
20
425.037758
30
0.0
10
301.289229
20
423.289065
30
0.0
10
299.575153
20
421.482570
30
0.0
10
297.893467
20
419.355443
30
0.0
10
296.017273
20
416.644850
30
0.0
10
293.713606
20
413.339066
30
0.0
10
293.640245
20
412.441115
30
0.0
10
293.729128
20
410.446158
30
0.0
10
294.219376
20
393.417778
30
0.0
10
294.506505
20
382.564569
30
0.0
10
294.795561
20
376.484444
30
0.0
10
295.530455
20
371.373113
30
0.0
10
296.004919
20
369.291541
30
0.0
10
296.579301
20
367.447043
30
0.0
10
297.275029
20
365.780379
30
0.0
10
298.113535
20
364.232306
30
0.0
10
299.116247
20
362.743584
30
0.0
10
300.304595
20
361.254971
30
0.0
10
301.488033
20
359.683232
30
0.0
10
302.324862
20
358.077763
30
0.0
10
302.894070
20
356.245440
30
0.0
10
303.274645
20
353.993140
30
0.0
10
303.555790
20
352.411155
30
0.0
10
304.016780
20
350.737928
30
0.0
10
305.459744
20
347.156497
30
0.0
10
307.566420
20
343.326346
30
0.0
10
310.299693
20
339.324978
30
0.0
10
312.217262
20
336.979485
30
0.0
10
314.196042
20
335.075103
30
0.0
10
316.478167
20
333.408925
30
0.0
10
319.305771
20
331.778046
30
0.0
10
322.015631
20
330.244858
30
0.0
10
324.074120
20
328.815358
30
0.0
10
325.694617
20
327.319897
30
0.0
10
327.090504
20
325.588828
30
0.0
10
328.374708
20
323.593575
30
0.0
10
329.734887
20
321.186750
30
0.0
10
330.933210
20
318.812770
30
0.0
10
331.731846
20
316.916054
30
0.0
10
333.106268
20
313.688730
30
0.0
10
334.596373
20
310.021111
30
0.0
10
336.065978
20
306.353328
30
0.0
10
338.096539
20
302.498866
30
0.0
10
340.524785
20
298.736637
30
0.0
10
343.187443
20
295.345556
30
0.0
10
345.615204
20
292.414452
30
0.0
10
347.634870
20
289.726765
30
0.0
10
351.485308
20
284.347413
30
0.0
10
355.233457
20
279.592253
30
0.0
10
359.093080
20
275.204383
30
0.0
10
363.277940
20
270.926899
30
0.0
10
367.563340
20
266.963046
30
0.0
10
371.512617
20
263.817396
30
0.0
10
375.498210
20
261.220408
30
0.0
10
379.892560
20
258.902539
30
0.0
10
384.593394
20
256.906940
30
0.0
10
389.129425
20
255.562139
30
0.0
10
393.785153
20
254.803014
30
0.0
10
398.845080
20
254.564444
30
0.0
10
403.471841
20
254.713478
30
0.0
10
407.900939
20
255.306368
30
0.0
10
413.294533
20
256.561801
30
0.0
10
420.814782
20
258.698464
30
0.0
10
426.275376
20
260.267578
30
0.0
10
429.914089
20
261.167598
30
0.0
10
432.460004
20
261.549669
30
0.0
10
434.642204
20
261.564938
30
0.0
10
436.794751
20
261.308084
30
0.0
10
438.499814
20
260.691037
30
0.0
10
439.882419
20
259.916598
30
0.0
10
440.760989
20
259.115765
30
0.0
10
441.278134
20
258.103254
30
0.0
10
441.576460
20
256.693783
30
0.0
10
441.848075
20
255.134415
30
0.0
10
442.167363
20
254.227877
30
0.0
10
442.610327
20
253.845653
30
0.0
10
443.252973
20
253.859228
30
0.0
10
443.728160
20
253.921488
30
0.0
10
444.048317
20
253.722823
30
0.0
10
444.766615
20
251.806089
30
0.0
10
445.484833
20
249.158227
30
0.0
10
446.127486
20
246.027372
30
0.0
10
447.161327
20
238.553551
30
0.0
10
447.818592
20
229.858366
30
0.0
10
448.049735
20
220.415556
30
0.0
10
448.298637
20
212.193159
30
0.0
10
449.046459
20
204.367553
30
0.0
10
449.303690
20
201.326182
30
0.0
10
449.171649
20
200.145190
30
0.0
10
448.788296
20
199.024543
30
0.0
10
448.095476
20
197.839653
30
0.0
10
447.035033
20
196.465931
30
0.0
10
443.578657
20
192.653638
30
0.0
10
439.871866
20
188.408222
30
0.0
10
439.127347
20
187.247244
30
0.0
10
439.019020
20
186.889520
30
0.0
10
439.081587
20
186.673575
30
0.0
10
439.640902
20
186.639309
30
0.0
10
440.733152
20
186.809408
30
0.0
10
442.333606
20
186.996352
30
0.0
10
442.302054
20
186.388056
30
0.0
10
441.868994
20
185.206876
30
0.0
10
441.172552
20
183.772644
30
0.0
10
440.350854
20
182.405189
30
0.0
10
437.770923
20
179.079412
30
0.0
10
434.597330
20
175.614676
30
0.0
10
431.413197
20
172.604822
30
0.0
10
428.801643
20
170.643691
30
0.0
10
427.281372
20
169.981009
30
0.0
10
425.330338
20
169.378461
30
0.0
10
422.401686
20
168.526563
30
0.0
10
420.146872
20
167.628358
30
0.0
10
418.812845
20
166.802480
30
0.0
10
418.568298
20
166.453736
30
0.0
10
418.646554
20
166.167562
30
0.0
10
419.797988
20
165.895172
30
0.0
10
422.185874
20
165.620728
30
0.0
10
425.277911
20
165.484905
30
0.0
10
427.817732
20
165.787719
30
0.0
10
431.895627
20
166.806679
30
0.0
10
433.479276
20
167.389312
30
0.0
10
434.543228
20
167.951178
30
0.0
10
435.232290
20
168.300820
30
0.0
10
435.956350
20
168.469169
30
0.0
10
436.528127
20
168.436604
30
0.0
10
436.760338
20
168.183504
30
0.0
10
436.226891
20
167.350528
30
0.0
10
434.913405
20
165.969950
30
0.0
10
433.250161
20
164.459641
30
0.0
10
431.667440
20
163.237474
30
0.0
10
429.587432
20
162.031986
30
0.0
10
427.152506
20
160.947739
30
0.0
10
424.476280
20
160.029252
30
0.0
10
421.672371
20
159.321048
30
0.0
10
417.607593
20
158.335882
30
0.0
10
414.499704
20
157.185790
30
0.0
10
411.869880
20
155.646327
30
0.0
10
409.239297
20
153.493047
30
0.0
10
405.870015
20
150.565556
30
0.0
10
401.590256
20
146.581001
30
0.0
10
399.641385
20
144.578925
30
0.0
10
399.053401
20
143.798832
30
0.0
10
398.671620
20
143.023329
30
0.0
10
398.457465
20
142.145387
30
0.0
10
398.372362
20
141.057977
30
0.0
10
398.435012
20
137.826637
30
0.0
10
398.639048
20
134.581865
30
0.0
10
398.828390
20
133.883755
30
0.0
10
399.130379
20
133.460067
30
0.0
10
399.696884
20
132.893590
30
0.0
10
401.224722
20
134.130627
30
0.0
10
405.715893
20
137.433248
30
0.0
10
409.949227
20
140.616150
30
0.0
10
411.101639
20
141.543035
30
0.0
10
412.465273
20
142.327157
30
0.0
10
418.176428
20
144.607252
30
0.0
10
421.196551
20
145.695999
30
0.0
10
423.179635
20
146.284326
30
0.0
10
424.405714
20
146.436889
30
0.0
10
425.154824
20
146.218346
30
0.0
10
425.405743
20
145.935836
30
0.0
10
425.287616
20
145.635832
30
0.0
10
423.929471
20
144.968270
30
0.0
10
421.938480
20
143.927045
30
0.0
10
419.011467
20
141.999645
30
0.0
10
415.813012
20
139.650098
30
0.0
10
413.007697
20
137.342428
30
0.0
10
409.816969
20
134.332663
30
0.0
10
406.398716
20
130.871415
30
0.0
10
403.468164
20
127.705299
30
0.0
10
401.740539
20
125.580930
30
0.0
10
397.571136
20
119.028891
30
0.0
10
396.778189
20
117.436623
30
0.0
10
396.295852
20
115.997821
30
0.0
10
395.564042
20
113.936930
30
0.0
10
394.590210
20
112.072755
30
0.0
10
393.292099
20
110.272625
30
0.0
10
391.587454
20
108.403870
30
0.0
10
389.895114
20
106.867391
30
0.0
10
388.059542
20
105.512366
30
0.0
10
386.098557
20
104.346115
30
0.0
10
384.029980
20
103.375961
30
0.0
10
381.871630
20
102.609227
30
0.0
10
379.641326
20
102.053235
30
0.0
10
377.356888
20
101.715307
30
0.0
10
375.036136
20
101.602766
30
0.0
10
372.739856
20
101.739061
30
0.0
10
371.045091
20
102.308321
30
0.0
10
369.183835
20
103.011111
30
0.0
10
368.614870
20
102.801254
30
0.0
10
368.181721
20
102.131929
30
0.0
10
367.860162
20
100.943507
30
0.0
10
367.625969
20
99.176360
30
0.0
10
367.249991
20
96.556413
30
0.0
10
366.634205
20
93.944160
30
0.0
10
365.797981
20
91.380926
30
0.0
10
364.760686
20
88.908036
30
0.0
10
363.541689
20
86.566817
30
0.0
10
362.160357
20
84.398593
30
0.0
10
360.636059
20
82.444689
30
0.0
10
358.988162
20
80.746431
30
0.0
10
356.550334
20
78.740738
30
0.0
10
353.570233
20
76.835039
30
0.0
10
349.388252
20
74.652856
30
0.0
10
343.344782
20
71.817710
30
0.0
10
338.562212
20
69.529191
30
0.0
10
335.061151
20
67.545920
30
0.0
10
332.237021
20
65.480961
30
0.0
10
329.485244
20
62.947381
30
0.0
10
327.306985
20
60.522773
30
0.0
10
325.002105
20
57.553197
30
0.0
10
322.984674
20
54.605529
30
0.0
10
321.668761
20
52.246643
30
0.0
10
321.250453
20
51.538537
30
0.0
10
321.149881
20
51.584255
30
0.0
10
321.121250
20
51.871682
30
0.0
10
321.278474
20
53.097257
30
0.0
10
321.719448
20
55.066438
30
0.0
10
322.678827
20
58.145466
30
0.0
10
323.989125
20
61.416526
30
0.0
10
325.464634
20
64.458759
30
0.0
10
326.919646
20
66.851304
30
0.0
10
330.098122
20
70.986352
30
0.0
10
331.599923
20
72.607528
30
0.0
10
333.206245
20
74.066379
30
0.0
10
335.039199
20
75.464336
30
0.0
10
337.220894
20
76.902830
30
0.0
10
343.118948
20
80.307152
30
0.0
10
346.528349
20
82.270103
30
0.0
10
349.411283
20
84.113581
30
0.0
10
351.811796
20
85.881018
30
0.0
10
353.773938
20
87.615843
30
0.0
10
355.341754
20
89.361489
30
0.0
10
356.559294
20
91.161385
30
0.0
10
357.470606
20
93.058964
30
0.0
10
358.119736
20
95.097656
30
0.0
10
358.619640
20
97.766241
30
0.0
10
358.949258
20
100.797988
30
0.0
10
359.057917
20
103.526893
30
0.0
10
358.894944
20
105.286951
30
0.0
10
358.540163
20
106.471127
30
0.0
10
357.221903
20
106.311700
30
0.0
10
355.261366
20
105.859238
30
0.0
10
352.541565
20
105.013883
30
0.0
10
349.966512
20
104.079496
30
0.0
10
348.440220
20
103.359938
30
0.0
10
347.440913
20
102.247778
30
0.0
10
346.050785
20
100.312107
30
0.0
10
344.452659
20
98.121338
30
0.0
10
342.715695
20
96.198083
30
0.0
10
340.761116
20
94.464313
30
0.0
10
338.510146
20
92.841995
30
0.0
10
335.207686
20
90.823236
30
0.0
10
333.824288
20
90.169676
30
0.0
10
332.465183
20
89.712154
30
0.0
10
331.014673
20
89.419793
30
0.0
10
329.357062
20
89.261711
30
0.0
10
324.957750
20
89.224866
30
0.0
10
319.694024
20
89.311000
30
0.0
10
316.914417
20
87.360450
30
0.0
10
314.083022
20
85.308515
30
0.0
10
311.968116
20
83.614518
30
0.0
10
310.432008
20
82.159708
30
0.0
10
309.337004
20
80.825340
30
0.0
10
304.647794
20
74.425392
30
0.0
10
302.712933
20
72.078743
30
0.0
10
300.955467
20
70.207205
30
0.0
10
299.303568
20
68.740446
30
0.0
10
297.685409
20
67.608136
30
0.0
10
296.029165
20
66.739945
30
0.0
10
294.263008
20
66.065541
30
0.0
10
291.932168
20
65.388830
30
0.0
10
290.071768
20
65.078631
30
0.0
10
288.388511
20
65.112041
30
0.0
10
286.589103
20
65.466158
30
0.0
10
283.494008
20
66.106158
30
0.0
10
281.070454
20
66.248643
30
0.0
10
280.112230
20
66.133407
30
0.0
10
279.323959
20
65.893898
30
0.0
10
278.706334
20
65.530151
30
0.0
10
278.260042
20
65.042203
30
0.0
10
276.562331
20
63.332752
30
0.0
10
273.092695
20
60.156937
30
0.0
10
269.562842
20
56.879999
30
0.0
10
267.176096
20
54.275027
30
0.0
10
265.554006
20
51.868952
30
0.0
10
264.318123
20
49.188709
30
0.0
10
263.460848
20
46.815962
30
0.0
10
263.038711
20
45.038137
30
0.0
10
263.009936
20
43.552877
30
0.0
10
263.332745
20
42.057828
30
0.0
10
263.608321
20
40.944097
30
0.0
10
263.666391
20
40.146884
30
0.0
10
263.507445
20
39.672351
30
0.0
10
263.131972
20
39.526662
30
0.0
10
261.476710
20
40.443884
30
0.0
10
261.476795
20
40.443884
30
0.0
62
0
0
LWPOLYLINE
100
AcDbPolyline
8
Layer_1
90
451
70
0
10
379.892645
20
112.214519
30
0.0
10
383.907792
20
113.595827
30
0.0
10
386.099418
20
114.495652
30
0.0
10
386.961706
20
115.045814
30
0.0
10
387.705219
20
115.700986
30
0.0
10
388.946636
20
117.440895
30
0.0
10
390.045109
20
119.944444
30
0.0
10
391.633710
20
123.492655
30
0.0
10
392.268769
20
124.853426
30
0.0
10
392.864124
20
126.559166
30
0.0
10
393.867989
20
130.654891
30
0.0
10
394.509835
20
135.078508
30
0.0
10
394.654193
20
139.128698
30
0.0
10
394.410360
20
141.857405
30
0.0
10
393.764911
20
143.776785
30
0.0
10
393.070976
20
145.908289
30
0.0
10
392.574695
20
149.278594
30
0.0
10
392.215677
20
152.191828
30
0.0
10
391.815637
20
154.197089
30
0.0
10
391.201889
20
155.931390
30
0.0
10
390.201743
20
158.031744
30
0.0
10
389.055112
20
160.573666
30
0.0
10
388.053531
20
163.281741
30
0.0
10
387.275798
20
165.919246
30
0.0
10
386.800711
20
168.249459
30
0.0
10
386.390146
20
170.071198
30
0.0
10
385.631888
20
172.201050
30
0.0
10
384.526792
20
174.636908
30
0.0
10
383.075716
20
177.376667
30
0.0
10
381.229794
20
180.549221
30
0.0
10
379.730212
20
182.815473
30
0.0
10
378.352697
20
184.481995
30
0.0
10
376.872980
20
185.855356
30
0.0
10
372.459529
20
189.331773
30
0.0
10
368.603756
20
192.070172
30
0.0
10
366.322097
20
193.609865
30
0.0
10
364.764161
20
194.825867
30
0.0
10
363.790801
20
195.840817
30
0.0
10
363.262870
20
196.777356
30
0.0
10
362.705191
20
199.326902
30
0.0
10
361.996680
20
203.769383
30
0.0
10
361.133535
20
209.020491
30
0.0
10
360.691838
20
210.496990
30
0.0
10
360.067465
20
211.953828
30
0.0
10
358.861894
20
214.201352
30
0.0
10
357.260514
20
216.566404
30
0.0
10
355.181112
20
219.159728
30
0.0
10
352.541473
20
222.092068
30
0.0
10
349.782268
20
225.278777
30
0.0
10
348.937781
20
226.621956
30
0.0
10
348.089672
20
228.300957
30
0.0
10
345.155661
20
233.967189
30
0.0
10
343.920353
20
236.347183
30
0.0
10
343.076163
20
238.297410
30
0.0
10
342.304546
20
240.098815
30
0.0
10
341.131162
20
242.327804
30
0.0
10
339.745290
20
244.647925
30
0.0
10
338.336213
20
246.722731
30
0.0
10
334.207044
20
252.753760
30
0.0
10
329.975408
20
259.215721
30
0.0
10
328.497061
20
261.088711
30
0.0
10
326.092548
20
263.711013
30
0.0
10
323.526677
20
266.283318
30
0.0
10
321.564254
20
268.006322
30
0.0
10
319.435917
20
269.208924
30
0.0
10
316.286078
20
270.656191
30
0.0
10
311.209076
20
272.913690
30
0.0
10
307.514639
20
275.143609
30
0.0
10
304.830160
20
276.981082
30
0.0
10
303.289660
20
278.253839
30
0.0
10
302.588650
20
279.273252
30
0.0
10
302.422645
20
280.350694
30
0.0
10
302.587851
20
281.401355
30
0.0
10
302.807230
20
281.714266
30
0.0
10
303.129234
20
281.888794
30
0.0
10
304.115440
20
281.832383
30
0.0
10
305.615114
20
281.251491
30
0.0
10
307.403844
20
280.586091
30
0.0
10
309.552054
20
280.144739
30
0.0
10
312.249789
20
279.900548
30
0.0
10
315.687089
20
279.826635
30
0.0
10
318.948052
20
279.916149
30
0.0
10
321.484703
20
280.227532
30
0.0
10
323.660768
20
280.831396
30
0.0
10
325.839977
20
281.798353
30
0.0
10
327.304217
20
282.646975
30
0.0
10
327.768831
20
283.084203
30
0.0
10
328.091059
20
283.612145
30
0.0
10
328.416204
20
285.186482
30
0.0
10
328.495350
20
287.862603
30
0.0
10
328.482009
20
290.432034
30
0.0
10
328.278899
20
291.775127
30
0.0
10
328.055450
20
292.111453
30
0.0
10
327.723682
20
292.290783
30
0.0
10
326.654019
20
292.377904
30
0.0
10
325.545887
20
292.150602
30
0.0
10
324.255130
20
291.398452
30
0.0
10
322.573068
20
290.234479
30
0.0
10
321.256029
20
289.648967
30
0.0
10
319.543474
20
289.443307
30
0.0
10
316.674867
20
289.418889
30
0.0
10
312.159311
20
289.418889
30
0.0
10
308.986682
20
291.064611
30
0.0
10
306.643489
20
292.384622
30
0.0
10
305.047710
20
293.700951
30
0.0
10
303.728267
20
295.520291
30
0.0
10
302.214082
20
298.349331
30
0.0
10
300.959757
20
301.088378
30
0.0
10
300.230095
20
303.485049
30
0.0
10
299.924138
20
306.020139
30
0.0
10
299.940924
20
309.174444
30
0.0
10
300.175515
20
311.756495
30
0.0
10
300.713726
20
313.500996
30
0.0
10
301.134116
20
314.131074
30
0.0
10
301.675323
20
314.638056
30
0.0
10
303.180073
20
315.397783
30
0.0
10
304.638807
20
315.713455
30
0.0
10
306.353094
20
315.795487
30
0.0
10
307.985947
20
315.650247
30
0.0
10
309.200381
20
315.284104
30
0.0
10
310.232299
20
314.532339
30
0.0
10
311.029445
20
313.281131
30
0.0
10
311.786327
20
311.101002
30
0.0
10
312.697453
20
307.562476
30
0.0
10
313.747363
20
303.409281
30
0.0
10
314.547201
20
301.013862
30
0.0
10
314.935766
20
300.290080
30
0.0
10
315.360722
20
299.783456
30
0.0
10
316.451686
20
299.125301
30
0.0
10
318.258968
20
298.464183
30
0.0
10
320.315160
20
297.919274
30
0.0
10
322.501918
20
297.516997
30
0.0
10
324.700900
20
297.283773
30
0.0
10
327.072029
20
297.226249
30
0.0
10
327.572279
20
297.383619
30
0.0
10
327.934800
20
297.706824
30
0.0
10
328.244250
20
298.345313
30
0.0
10
328.367546
20
299.310294
30
0.0
10
328.105456
20
301.960534
30
0.0
10
327.248091
20
305.139158
30
0.0
10
325.895010
20
308.327778
30
0.0
10
325.009249
20
309.761734
30
0.0
10
323.821036
20
311.269116
30
0.0
10
322.381773
20
312.805222
30
0.0
10
320.742864
20
314.325349
30
0.0
10
317.071713
20
317.138859
30
0.0
10
315.142276
20
318.342837
30
0.0
10
313.218802
20
319.352027
30
0.0
10
310.454717
20
320.898040
30
0.0
10
305.463473
20
323.821383
30
0.0
10
300.164867
20
326.527470
30
0.0
10
295.330231
20
328.685342
30
0.0
10
292.521372
20
329.769283
30
0.0
10
289.401278
20
330.322597
30
0.0
10
283.952188
20
331.307130
30
0.0
10
281.911533
20
331.721428
30
0.0
10
279.941100
20
331.865344
30
0.0
10
277.973356
20
331.739184
30
0.0
10
275.940768
20
331.343254
30
0.0
10
270.813750
20
330.352795
30
0.0
10
268.475762
20
329.894260
30
0.0
10
266.140289
20
329.207689
30
0.0
10
263.783424
20
328.280181
30
0.0
10
261.381259
20
327.098840
30
0.0
10
258.909889
20
325.650765
30
0.0
10
256.345406
20
323.923059
30
0.0
10
253.663904
20
321.902822
30
0.0
10
250.841476
20
319.577156
30
0.0
10
249.124630
20
318.064923
30
0.0
10
248.001146
20
316.915987
30
0.0
10
247.190563
20
315.802235
30
0.0
10
246.412422
20
314.395556
30
0.0
10
243.918621
20
310.240087
30
0.0
10
242.615873
20
307.991295
30
0.0
10
241.746047
20
305.869058
30
0.0
10
240.576010
20
302.746128
30
0.0
10
240.288875
20
302.023327
30
0.0
10
240.123117
20
301.033582
30
0.0
10
240.028640
20
296.894702
30
0.0
10
240.116746
20
292.986178
30
0.0
10
240.241535
20
291.944456
30
0.0
10
240.433177
20
291.331989
30
0.0
10
241.623252
20
288.025417
30
0.0
10
242.219746
20
285.830747
30
0.0
10
242.167808
20
285.429620
30
0.0
10
241.912021
20
285.203194
30
0.0
10
237.699488
20
282.517257
30
0.0
10
233.582998
20
280.053905
30
0.0
10
228.903750
20
277.482074
30
0.0
10
222.897440
20
274.131871
30
0.0
10
221.909994
20
273.109037
30
0.0
10
220.836654
20
271.634402
30
0.0
10
219.574175
20
269.932673
30
0.0
10
218.014368
20
268.307358
30
0.0
10
216.265765
20
266.859277
30
0.0
10
214.436898
20
265.689249
30
0.0
10
210.230404
20
263.270972
30
0.0
10
204.879640
20
260.461675
30
0.0
10
202.103057
20
259.016232
30
0.0
10
199.705208
20
257.543610
30
0.0
10
195.601528
20
254.932067
30
0.0
10
191.458196
20
252.412364
30
0.0
10
187.847843
20
249.823034
30
0.0
10
184.574765
20
247.010490
30
0.0
10
181.443257
20
243.821148
30
0.0
10
180.077745
20
242.256406
30
0.0
10
179.022546
20
240.795362
30
0.0
10
176.526015
20
236.122238
30
0.0
10
174.750156
20
232.394305
30
0.0
10
174.011528
20
230.541548
30
0.0
10
174.218951
20
230.040205
30
0.0
10
174.717648
20
229.561446
30
0.0
10
175.145893
20
229.320846
30
0.0
10
175.543832
20
229.273717
30
0.0
10
176.964588
20
229.852615
30
0.0
10
178.615574
20
230.930051
30
0.0
10
180.421246
20
232.461872
30
0.0
10
181.890015
20
233.846190
30
0.0
10
182.951471
20
234.656298
30
0.0
10
184.038162
20
235.155923
30
0.0
10
185.582639
20
235.608791
30
0.0
10
187.657285
20
236.259249
30
0.0
10
189.902840
20
237.199600
30
0.0
10
196.820192
20
240.840909
30
0.0
10
204.829602
20
245.086576
30
0.0
10
207.569646
20
246.640575
30
0.0
10
210.696138
20
249.042760
30
0.0
10
214.969603
20
252.940613
30
0.0
10
221.150569
20
258.981617
30
0.0
10
226.368566
20
264.127657
30
0.0
10
229.215733
20
266.705373
30
0.0
10
230.095746
20
267.300051
30
0.0
10
230.797640
20
267.575378
30
0.0
10
232.219861
20
267.598285
30
0.0
10
232.767990
20
267.482796
30
0.0
10
232.995972
20
267.277624
30
0.0
10
231.167201
20
264.949291
30
0.0
10
229.448785
20
262.707339
30
0.0
10
227.885351
20
260.208889
30
0.0
10
224.572655
20
254.279329
30
0.0
10
222.368499
20
250.960043
30
0.0
10
218.944128
20
245.677803
30
0.0
10
216.980879
20
242.605989
30
0.0
10
214.578877
20
239.309949
30
0.0
10
211.847447
20
235.931819
30
0.0
10
208.895916
20
232.613736
30
0.0
10
206.164707
20
229.414042
30
0.0
10
203.784505
20
226.189794
30
0.0
10
202.289245
20
224.070062
30
0.0
10
200.706564
20
222.142405
30
0.0
10
198.962301
20
220.347226
30
0.0
10
196.982297
20
218.624933
30
0.0
10
194.692389
20
216.915930
30
0.0
10
192.018419
20
215.160622
30
0.0
10
185.221649
20
211.272713
30
0.0
10
180.247722
20
208.487539
30
0.0
10
176.127828
20
206.010933
30
0.0
10
172.879711
20
204.106738
30
0.0
10
170.138790
20
202.880976
30
0.0
10
166.673750
20
201.505453
30
0.0
10
163.262220
20
200.263958
30
0.0
10
160.924859
20
199.357347
30
0.0
10
158.768875
20
198.099116
30
0.0
10
155.874150
20
196.246694
30
0.0
10
153.453050
20
194.588779
30
0.0
10
152.115144
20
193.667923
30
0.0
10
151.139590
20
193.182889
30
0.0
10
150.001444
20
192.617314
30
0.0
10
148.390943
20
191.466153
30
0.0
10
146.604610
20
189.961264
30
0.0
10
144.938970
20
188.334509
30
0.0
10
142.902313
20
185.988611
30
0.0
10
142.136439
20
184.854570
30
0.0
10
141.451614
20
183.560353
30
0.0
10
140.063345
20
179.933046
30
0.0
10
138.213981
20
173.990000
30
0.0
10
137.503801
20
171.460336
30
0.0
10
137.030603
20
169.120707
30
0.0
10
136.308191
20
161.929939
30
0.0
10
135.802805
20
156.680302
30
0.0
10
135.533273
20
155.724925
30
0.0
10
135.126922
20
155.163068
30
0.0
10
134.280788
20
154.461041
30
0.0
10
133.243879
20
153.847066
30
0.0
10
131.795376
20
152.849593
30
0.0
10
130.185154
20
151.258535
30
0.0
10
128.681634
20
149.373551
30
0.0
10
127.553235
20
147.494300
30
0.0
10
126.812134
20
145.602490
30
0.0
10
126.585787
20
143.891289
30
0.0
10
126.879797
20
142.068297
30
0.0
10
127.699764
20
139.841111
30
0.0
10
129.072357
20
137.209496
30
0.0
10
129.822163
20
136.287468
30
0.0
10
130.676546
20
135.587535
30
0.0
10
131.682186
20
135.079381
30
0.0
10
132.885762
20
134.732687
30
0.0
10
136.073439
20
134.402407
30
0.0
10
139.019458
20
134.416292
30
0.0
10
140.003359
20
134.631372
30
0.0
10
141.153439
20
135.047736
30
0.0
10
142.995042
20
135.858714
30
0.0
10
144.466068
20
136.695822
30
0.0
10
145.545516
20
137.545175
30
0.0
10
146.212385
20
138.392888
30
0.0
10
146.512277
20
139.246940
30
0.0
10
146.576074
20
140.372024
30
0.0
10
146.396904
20
141.927929
30
0.0
10
145.967896
20
144.074444
30
0.0
10
145.734840
20
145.658515
30
0.0
10
145.929881
20
146.918821
30
0.0
10
147.173486
20
149.225568
30
0.0
10
149.686710
20
153.155227
30
0.0
10
152.474593
20
157.080830
30
0.0
10
155.219782
20
160.207103
30
0.0
10
158.814232
20
163.426895
30
0.0
10
164.149893
20
167.633057
30
0.0
10
171.480150
20
173.326261
30
0.0
10
176.881830
20
177.685506
30
0.0
10
180.960641
20
181.214791
30
0.0
10
184.322291
20
184.418111
30
0.0
10
187.526463
20
187.699224
30
0.0
10
190.194722
20
190.748105
30
0.0
10
193.394401
20
194.868850
30
0.0
10
198.192836
20
201.365556
30
0.0
10
204.714480
20
210.416535
30
0.0
10
206.552258
20
213.259971
30
0.0
10
208.596365
20
216.682574
30
0.0
10
210.532936
20
219.797658
30
0.0
10
212.091744
20
222.026960
30
0.0
10
213.944211
20
224.025041
30
0.0
10
216.661878
20
226.614690
30
0.0
10
219.712280
20
229.308199
30
0.0
10
222.562951
20
231.617859
30
0.0
10
228.621528
20
236.481451
30
0.0
10
230.557432
20
238.045031
30
0.0
10
232.280846
20
239.258295
30
0.0
10
236.947083
20
241.825865
30
0.0
10
243.861528
20
245.110649
30
0.0
10
246.047072
20
246.062530
30
0.0
10
248.433835
20
247.315115
30
0.0
10
254.868195
20
251.318663
30
0.0
10
261.587313
20
255.543893
30
0.0
10
267.003750
20
258.584107
30
0.0
10
268.806947
20
259.366998
30
0.0
10
270.958685
20
260.044960
30
0.0
10
273.602400
20
260.656565
30
0.0
10
276.881528
20
261.240383
30
0.0
10
280.399145
20
261.842496
30
0.0
10
282.312850
20
262.383559
30
0.0
10
282.850103
20
262.714711
30
0.0
10
283.204617
20
263.130818
30
0.0
10
283.656419
20
264.351516
30
0.0
10
284.667882
20
267.461439
30
0.0
10
285.166838
20
268.447778
30
0.0
10
285.745089
20
269.251684
30
0.0
10
286.563590
20
270.227778
30
0.0
10
287.287236
20
269.552251
30
0.0
10
287.875330
20
268.796972
30
0.0
10
288.387811
20
267.659640
30
0.0
10
289.314946
20
263.877778
30
0.0
10
289.715749
20
262.049758
30
0.0
10
290.175488
20
260.941495
30
0.0
10
290.848317
20
260.317166
30
0.0
10
291.888390
20
259.940947
30
0.0
10
297.024192
20
258.286984
30
0.0
10
301.502346
20
256.583152
30
0.0
10
305.668200
20
255.003102
30
0.0
10
308.029880
20
254.136641
30
0.0
10
309.927812
20
253.261050
30
0.0
10
311.524801
20
252.290327
30
0.0
10
312.983654
20
251.138464
30
0.0
10
314.435767
20
249.476327
30
0.0
10
316.511926
20
246.587052
30
0.0
10
318.981912
20
242.808312
30
0.0
10
321.615506
20
238.477778
30
0.0
10
323.245925
20
235.789923
30
0.0
10
324.719946
20
233.715278
30
0.0
10
326.618524
20
231.517971
30
0.0
10
329.522610
20
228.462134
30
0.0
10
332.028123
20
225.770150
30
0.0
10
333.607001
20
223.605171
30
0.0
10
334.799905
20
221.045640
30
0.0
10
336.147495
20
217.170000
30
0.0
10
337.688315
20
213.004908
30
0.0
10
338.244116
20
211.091900
30
0.0
10
338.716056
20
208.207130
30
0.0
10
339.579627
20
203.200000
30
0.0
10
339.805961
20
201.891842
30
0.0
10
339.960571
20
199.463745
30
0.0
10
340.151607
20
188.806667
30
0.0
10
340.282728
20
175.965556
30
0.0
10
341.223318
20
173.002222
30
0.0
10
342.760554
20
167.216667
30
0.0
10
343.766902
20
163.547778
30
0.0
10
345.509243
20
159.431665
30
0.0
10
347.598718
20
154.006014
30
0.0
10
349.113461
20
150.175045
30
0.0
10
350.147500
20
148.907990
30
0.0
10
352.063286
20
146.983115
30
0.0
10
354.219627
20
145.013626
30
0.0
10
355.975327
20
143.612729
30
0.0
10
358.465346
20
141.771539
30
0.0
10
359.526945
20
141.031078
30
0.0
10
360.781238
20
140.359902
30
0.0
10
363.741173
20
139.261758
30
0.0
10
367.091686
20
138.549811
30
0.0
10
370.579311
20
138.296763
30
0.0
10
373.575942
20
138.488221
30
0.0
10
376.294819
20
139.116700
30
0.0
10
378.983894
20
140.263354
30
0.0
10
381.891117
20
142.009340
30
0.0
10
383.866695
20
143.138668
30
0.0
10
384.553716
20
143.284217
30
0.0
10
385.087943
20
143.116561
30
0.0
10
385.505165
20
142.610352
30
0.0
10
385.841170
20
141.740243
30
0.0
10
386.412684
20
138.806936
30
0.0
10
386.664672
20
136.598910
30
0.0
10
386.774647
20
134.303754
30
0.0
10
386.601028
20
129.785046
30
0.0
10
386.333671
20
127.727992
30
0.0
10
385.956773
20
125.916801
30
0.0
10
385.478454
20
124.434723
30
0.0
10
384.906830
20
123.365006
30
0.0
10
384.072977
20
122.567531
30
0.0
10
382.832977
20
121.688606
30
0.0
10
381.300013
20
120.927947
30
0.0
10
380.628809
20
120.848080
30
0.0
10
379.751534
20
120.899484
30
0.0
10
376.364867
20
121.477786
30
0.0
10
374.434163
20
121.783524
30
0.0
10
372.368290
20
121.914130
30
0.0
10
370.404683
20
121.796186
30
0.0
10
369.927044
20
121.533864
30
0.0
10
369.465267
20
121.039495
30
0.0
10
368.739546
20
120.073738
30
0.0
10
368.224386
20
119.128942
30
0.0
10
367.888602
20
118.134013
30
0.0
10
367.701012
20
117.017856
30
0.0
10
367.707584
20
115.771087
30
0.0
10
367.963415
20
114.604200
30
0.0
10
368.434627
20
113.617558
30
0.0
10
369.087344
20
112.911523
30
0.0
10
370.039314
20
112.377116
30
0.0
10
371.223756
20
111.962856
30
0.0
10
374.052934
20
111.510075
30
0.0
10
377.100643
20
111.583766
30
0.0
10
378.558247
20
111.827598
30
0.0
10
379.892645
20
112.214519
30
0.0
10
379.892645
20
112.214519
30
0.0
62
0
0
LWPOLYLINE
100
AcDbPolyline
8
Layer_1
90
64
70
0
10
261.839225
20
281.237746
30
0.0
10
259.299225
20
282.891202
30
0.0
10
256.226417
20
284.870313
30
0.0
10
254.878039
20
285.685449
30
0.0
10
253.780221
20
286.643759
30
0.0
10
252.978789
20
287.696710
30
0.0
10
252.519569
20
288.795770
30
0.0
10
252.357776
20
290.297189
30
0.0
10
252.654927
20
291.459624
30
0.0
10
252.962191
20
291.888428
30
0.0
10
253.368092
20
292.202133
30
0.0
10
253.867265
20
292.390621
30
0.0
10
254.454344
20
292.443775
30
0.0
10
255.524067
20
292.101474
30
0.0
10
257.387698
20
291.190038
30
0.0
10
262.571281
20
288.149369
30
0.0
10
263.470404
20
287.622158
30
0.0
10
264.289531
20
287.323812
30
0.0
10
267.086836
20
287.083472
30
0.0
10
270.498866
20
287.063274
30
0.0
10
273.472604
20
287.279161
30
0.0
10
275.922675
20
287.720786
30
0.0
10
277.763698
20
288.377799
30
0.0
10
279.614516
20
289.464161
30
0.0
10
281.686996
20
290.910952
30
0.0
10
283.634226
20
292.459655
30
0.0
10
285.109299
20
293.851753
30
0.0
10
285.730715
20
294.593332
30
0.0
10
286.153959
20
295.302852
30
0.0
10
286.747176
20
297.355824
30
0.0
10
287.787814
20
302.024232
30
0.0
10
288.216760
20
304.430451
30
0.0
10
287.913826
20
306.640540
30
0.0
10
287.557241
20
308.773223
30
0.0
10
287.465107
20
310.449828
30
0.0
10
287.637641
20
311.678091
30
0.0
10
288.075060
20
312.465748
30
0.0
10
288.685280
20
313.075969
30
0.0
10
289.335520
20
312.320037
30
0.0
10
290.064991
20
311.041594
30
0.0
10
290.674202
20
309.148368
30
0.0
10
291.147158
20
306.818185
30
0.0
10
291.467861
20
304.228870
30
0.0
10
291.620314
20
301.558251
30
0.0
10
291.588520
20
298.984152
30
0.0
10
291.356483
20
296.684400
30
0.0
10
290.908204
20
294.836822
30
0.0
10
290.104772
20
293.120433
30
0.0
10
288.856956
20
291.029196
30
0.0
10
287.378128
20
288.893853
30
0.0
10
285.881657
20
287.045146
30
0.0
10
284.526401
20
285.795424
30
0.0
10
283.120790
20
284.851517
30
0.0
10
280.973750
20
283.629156
30
0.0
10
280.017368
20
283.116977
30
0.0
10
278.711369
20
282.737962
30
0.0
10
274.341528
20
282.229842
30
0.0
10
271.045702
20
281.877156
30
0.0
10
268.273750
20
281.392940
30
0.0
10
266.277402
20
281.004797
30
0.0
10
264.505170
20
280.848724
30
0.0
10
263.008596
20
280.925961
30
0.0
10
261.839225
20
281.237746
30
0.0
10
261.839225
20
281.237746
30
0.0
62
0
0
LWPOLYLINE
100
AcDbPolyline
8
Layer_1
90
47
70
0
10
261.826242
20
296.869979
30
0.0
10
259.140143
20
297.949524
30
0.0
10
257.032229
20
299.033297
30
0.0
10
255.313734
20
300.233995
30
0.0
10
253.795891
20
301.664314
30
0.0
10
252.282612
20
303.524521
30
0.0
10
252.058750
20
304.071460
30
0.0
10
252.183330
20
304.374296
30
0.0
10
257.757981
20
304.769464
30
0.0
10
261.130458
20
304.954368
30
0.0
10
263.189559
20
305.233864
30
0.0
10
264.429299
20
305.723063
30
0.0
10
265.343691
20
306.537078
30
0.0
10
266.213665
20
307.612050
30
0.0
10
266.720328
20
308.707885
30
0.0
10
266.994286
20
310.269128
30
0.0
10
267.166141
20
312.740322
30
0.0
10
267.469205
20
316.269680
30
0.0
10
267.725901
20
317.262205
30
0.0
10
268.129901
20
318.175301
30
0.0
10
268.983211
20
319.727772
30
0.0
10
269.723385
20
320.672135
30
0.0
10
270.518295
20
321.165627
30
0.0
10
271.535816
20
321.365485
30
0.0
10
272.344779
20
321.388920
30
0.0
10
273.108245
20
321.260675
30
0.0
10
275.329390
20
320.320247
30
0.0
10
277.003589
20
319.445476
30
0.0
10
278.142444
20
318.705653
30
0.0
10
278.791994
20
318.065251
30
0.0
10
278.998279
20
317.488739
30
0.0
10
278.268904
20
313.798486
30
0.0
10
277.672509
20
310.384412
30
0.0
10
277.298173
20
306.634444
30
0.0
10
277.024047
20
303.527086
30
0.0
10
276.703925
20
301.604595
30
0.0
10
276.079486
20
300.407713
30
0.0
10
274.998220
20
299.237023
30
0.0
10
273.461008
20
298.093303
30
0.0
10
271.468731
20
296.977336
30
0.0
10
269.046434
20
295.914927
30
0.0
10
268.034449
20
295.644800
30
0.0
10
267.050574
20
295.547560
30
0.0
10
266.016314
20
295.622331
30
0.0
10
264.853170
20
295.868241
30
0.0
10
261.826242
20
296.869979
30
0.0
10
261.826242
20
296.869979
30
0.0
62
0
0
LWPOLYLINE
100
AcDbPolyline
8
Layer_1
90
67
70
0
10
204.791558
20
126.736743
30
0.0
10
205.547529
20
127.916845
30
0.0
10
206.227618
20
129.550527
30
0.0
10
206.855054
20
131.498707
30
0.0
10
206.251804
20
134.976164
30
0.0
10
205.648526
20
138.453594
30
0.0
10
206.352388
20
141.122908
30
0.0
10
207.753283
20
147.858678
30
0.0
10
208.149092
20
150.277959
30
0.0
10
208.306283
20
151.964951
30
0.0
10
208.247575
20
153.711627
30
0.0
10
207.995684
20
156.309963
30
0.0
10
207.724484
20
160.036379
30
0.0
10
207.645700
20
163.663037
30
0.0
10
207.756082
20
166.523081
30
0.0
10
208.052382
20
167.949654
30
0.0
10
208.970536
20
170.180000
30
0.0
10
209.463589
20
171.435916
30
0.0
10
210.238246
20
172.715869
30
0.0
10
213.899123
20
177.135592
30
0.0
10
215.620138
20
179.357675
30
0.0
10
217.596055
20
182.308285
30
0.0
10
219.642059
20
185.696150
30
0.0
10
221.573338
20
189.230000
30
0.0
10
224.096687
20
193.986545
30
0.0
10
224.970962
20
195.820750
30
0.0
10
225.575955
20
197.514323
30
0.0
10
226.026442
20
198.898196
30
0.0
10
226.529273
20
199.987747
30
0.0
10
226.905888
20
200.762078
30
0.0
10
227.053074
20
201.428368
30
0.0
10
226.965983
20
201.895187
30
0.0
10
226.639763
20
202.071111
30
0.0
10
225.894495
20
201.702379
30
0.0
10
224.845839
20
200.794899
30
0.0
10
223.797829
20
199.646749
30
0.0
10
223.054497
20
198.556005
30
0.0
10
221.316188
20
195.931455
30
0.0
10
218.315817
20
192.334444
30
0.0
10
213.008458
20
186.125556
30
0.0
10
207.543310
20
179.986968
30
0.0
10
205.763049
20
178.117442
30
0.0
10
204.567858
20
176.515709
30
0.0
10
203.702810
20
174.767233
30
0.0
10
202.912974
20
172.457477
30
0.0
10
201.363207
20
167.557648
30
0.0
10
200.845922
20
164.926744
30
0.0
10
200.396709
20
160.078759
30
0.0
10
199.984887
20
155.572421
30
0.0
10
199.582611
20
152.944943
30
0.0
10
199.003801
20
149.417165
30
0.0
10
198.418864
20
144.722966
30
0.0
10
197.401090
20
140.582509
30
0.0
10
196.910463
20
138.588707
30
0.0
10
196.667388
20
136.635845
30
0.0
10
196.667472
20
134.745543
30
0.0
10
196.906326
20
132.939423
30
0.0
10
197.379558
20
131.239105
30
0.0
10
198.082778
20
129.666208
30
0.0
10
199.011595
20
128.242354
30
0.0
10
200.161618
20
126.989163
30
0.0
10
201.390604
20
126.067774
30
0.0
10
201.957327
20
125.909921
30
0.0
10
202.678730
20
125.871111
30
0.0
10
203.890677
20
126.032242
30
0.0
10
204.791558
20
126.736743
30
0.0
10
204.791558
20
126.736743
30
0.0
62
0
0
LWPOLYLINE
100
AcDbPolyline
8
Layer_1
90
104
70
0
10
321.932385
20
170.532778
30
0.0
10
322.116307
20
171.314551
30
0.0
10
322.227402
20
172.755937
30
0.0
10
322.270600
20
178.553872
30
0.0
10
322.169540
20
184.008129
30
0.0
10
321.940844
20
188.635499
30
0.0
10
321.574386
20
192.581959
30
0.0
10
321.060036
20
195.993484
30
0.0
10
320.638406
20
198.877357
30
0.0
10
320.361705
20
201.833960
30
0.0
10
320.052323
20
204.669330
30
0.0
10
319.488368
20
207.180575
30
0.0
10
318.229262
20
212.850843
30
0.0
10
317.715424
20
215.488612
30
0.0
10
317.265360
20
217.151402
30
0.0
10
316.264403
20
220.293353
30
0.0
10
315.223700
20
223.119156
30
0.0
10
313.603527
20
226.501748
30
0.0
10
311.733503
20
229.809305
30
0.0
10
309.943246
20
232.410000
30
0.0
10
306.657295
20
236.101105
30
0.0
10
302.944819
20
239.667972
30
0.0
10
299.334484
20
242.638628
30
0.0
10
297.732826
20
243.752884
30
0.0
10
296.354952
20
244.541096
30
0.0
10
294.638413
20
245.128768
30
0.0
10
292.403840
20
245.548122
30
0.0
10
287.606063
20
246.460264
30
0.0
10
284.835402
20
246.924046
30
0.0
10
281.554503
20
247.072400
30
0.0
10
278.194937
20
246.906467
30
0.0
10
275.188279
20
246.427385
30
0.0
10
270.390501
20
245.553964
30
0.0
10
268.498482
20
245.187455
30
0.0
10
266.487516
20
244.572384
30
0.0
10
264.622336
20
243.803289
30
0.0
10
263.167673
20
242.974707
30
0.0
10
260.361311
20
241.417038
30
0.0
10
258.491192
20
240.228772
30
0.0
10
255.940170
20
238.169284
30
0.0
10
252.773700
20
235.295054
30
0.0
10
249.057239
20
231.662563
30
0.0
10
247.225949
20
229.715069
30
0.0
10
245.608651
20
227.785993
30
0.0
10
244.234404
20
225.925888
30
0.0
10
243.132262
20
224.185307
30
0.0
10
242.331284
20
222.614805
30
0.0
10
241.860526
20
221.264934
30
0.0
10
241.749045
20
220.186248
30
0.0
10
242.025898
20
219.429302
30
0.0
10
242.366285
20
219.154113
30
0.0
10
242.811070
20
219.006662
30
0.0
10
243.945990
20
219.078443
30
0.0
10
245.294958
20
219.611594
30
0.0
10
246.722273
20
220.573064
30
0.0
10
248.091870
20
221.544444
30
0.0
10
250.019927
20
222.768442
30
0.0
10
253.739390
20
225.075073
30
0.0
10
257.126057
20
227.087599
30
0.0
10
259.484753
20
228.399274
30
0.0
10
262.368610
20
229.665763
30
0.0
10
265.241746
20
230.675214
30
0.0
10
267.568279
20
231.215777
30
0.0
10
269.566363
20
231.606718
30
0.0
10
271.052679
20
232.209114
30
0.0
10
271.854260
20
232.610719
30
0.0
10
272.853384
20
232.825689
30
0.0
10
277.709032
20
232.946646
30
0.0
10
282.642666
20
232.870185
30
0.0
10
283.757035
20
232.646124
30
0.0
10
284.807970
20
232.211344
30
0.0
10
288.042604
20
231.020676
30
0.0
10
289.766960
20
230.356068
30
0.0
10
291.638443
20
229.231571
30
0.0
10
293.771911
20
227.567197
30
0.0
10
296.282223
20
225.282958
30
0.0
10
299.315752
20
222.605342
30
0.0
10
302.011673
20
220.706809
30
0.0
10
307.285083
20
217.194769
30
0.0
10
309.614746
20
215.439774
30
0.0
10
311.107667
20
214.141643
30
0.0
10
311.883263
20
213.052360
30
0.0
10
312.286368
20
211.646403
30
0.0
10
312.763143
20
209.926216
30
0.0
10
313.551598
20
207.941700
30
0.0
10
314.345372
20
205.969006
30
0.0
10
315.017305
20
203.733781
30
0.0
10
315.561286
20
201.259690
30
0.0
10
315.971202
20
198.570398
30
0.0
10
316.440545
20
195.938320
30
0.0
10
316.841922
20
195.060241
30
0.0
10
317.506914
20
194.022585
30
0.0
10
317.867756
20
193.370119
30
0.0
10
318.091287
20
192.491596
30
0.0
10
318.353948
20
188.599741
30
0.0
10
318.913926
20
179.116475
30
0.0
10
319.246631
20
176.186515
30
0.0
10
319.626262
20
174.332166
30
0.0
10
320.355242
20
171.600368
30
0.0
10
320.823103
20
170.225205
30
0.0
10
321.106542
20
169.782149
30
0.0
10
321.365259
20
169.615556
30
0.0
10
321.932385
20
170.532778
30
0.0
10
321.932385
20
170.532778
30
0.0
62
0
0
LWPOLYLINE
100
AcDbPolyline
8
Layer_1
90
124
70
0
10
412.097389
20
178.278705
30
0.0
10
414.357510
20
180.010731
30
0.0
10
415.540924
20
181.468889
30
0.0
10
418.678868
20
185.278889
30
0.0
10
419.995798
20
186.833103
30
0.0
10
421.142319
20
188.483790
30
0.0
10
424.354752
20
194.364751
30
0.0
10
427.263172
20
200.221543
30
0.0
10
427.769210
20
201.690814
30
0.0
10
427.988589
20
203.009105
30
0.0
10
428.167349
20
204.197570
30
0.0
10
428.466402
20
205.240110
30
0.0
10
429.818631
20
207.948869
30
0.0
10
431.110390
20
210.550640
30
0.0
10
431.842672
20
212.710070
30
0.0
10
433.316832
20
217.875556
30
0.0
10
434.361618
20
221.121111
30
0.0
10
434.307149
20
227.894444
30
0.0
10
434.189438
20
234.252726
30
0.0
10
433.949150
20
239.232796
30
0.0
10
433.585377
20
242.847579
30
0.0
10
433.097206
20
245.110000
30
0.0
10
431.770977
20
248.122422
30
0.0
10
431.109176
20
249.209246
30
0.0
10
430.618166
20
249.701756
30
0.0
10
430.393015
20
249.672755
30
0.0
10
430.169042
20
249.445632
30
0.0
10
429.732877
20
248.423952
30
0.0
10
429.326156
20
246.690586
30
0.0
10
428.965360
20
244.299401
30
0.0
10
428.476702
20
240.908201
30
0.0
10
427.886206
20
237.910448
30
0.0
10
427.170794
20
235.205376
30
0.0
10
426.307391
20
232.692222
30
0.0
10
424.618658
20
227.894444
30
0.0
10
424.034364
20
226.230944
30
0.0
10
423.249266
20
224.650050
30
0.0
10
422.045757
20
222.773419
30
0.0
10
420.206226
20
220.222713
30
0.0
10
418.250656
20
217.804369
30
0.0
10
416.614980
20
216.238137
30
0.0
10
415.940890
20
215.792940
30
0.0
10
415.375317
20
215.582824
30
0.0
10
414.927777
20
215.615138
30
0.0
10
414.607784
20
215.897234
30
0.0
10
414.170594
20
221.330012
30
0.0
10
413.605980
20
229.405773
30
0.0
10
412.884977
20
233.822625
30
0.0
10
411.724750
20
238.255990
30
0.0
10
410.343342
20
242.003994
30
0.0
10
409.637834
20
243.401650
30
0.0
10
408.958796
20
244.364764
30
0.0
10
408.066102
20
245.171464
30
0.0
10
407.742227
20
245.137285
30
0.0
10
407.298059
20
244.873244
30
0.0
10
406.457677
20
244.135391
30
0.0
10
405.538690
20
242.952210
30
0.0
10
403.321464
20
239.039456
30
0.0
10
402.057025
20
236.421014
30
0.0
10
401.426895
20
234.654369
30
0.0
10
401.304073
20
233.195460
30
0.0
10
401.561554
20
231.500228
30
0.0
10
402.075294
20
227.545341
30
0.0
10
402.168452
20
223.066804
30
0.0
10
401.849590
20
218.411033
30
0.0
10
401.127270
20
213.924444
30
0.0
10
400.491205
20
211.443570
30
0.0
10
400.213363
20
211.012739
30
0.0
10
399.858145
20
210.870998
30
0.0
10
399.342604
20
210.953904
30
0.0
10
398.989271
20
211.476611
30
0.0
10
398.743851
20
212.587212
30
0.0
10
398.552049
20
214.433799
30
0.0
10
398.212642
20
216.718737
30
0.0
10
397.662795
20
218.921020
30
0.0
10
397.084652
20
221.189282
30
0.0
10
396.677134
20
223.632804
30
0.0
10
396.270462
20
226.068435
30
0.0
10
395.694267
20
228.317778
30
0.0
10
395.045276
20
230.857136
30
0.0
10
394.463552
20
233.990049
30
0.0
10
393.937666
20
236.824647
30
0.0
10
393.422914
20
238.646716
30
0.0
10
392.015614
20
240.542544
30
0.0
10
389.570666
20
243.104529
30
0.0
10
387.009851
20
245.432263
30
0.0
10
385.974050
20
246.226907
30
0.0
10
385.254952
20
246.625336
30
0.0
10
383.409761
20
246.922022
30
0.0
10
380.558689
20
247.141238
30
0.0
10
378.103472
20
247.209174
30
0.0
10
377.354277
20
247.111143
30
0.0
10
376.848299
20
246.860790
30
0.0
10
376.528748
20
246.409871
30
0.0
10
376.338828
20
245.710142
30
0.0
10
376.120716
20
243.371285
30
0.0
10
376.072871
20
239.197898
30
0.0
10
376.535474
20
235.372839
30
0.0
10
376.948057
20
233.642491
30
0.0
10
377.476088
20
232.061094
30
0.0
10
378.115514
20
230.649271
30
0.0
10
378.862280
20
229.427645
30
0.0
10
380.598398
20
226.624444
30
0.0
10
383.975271
20
221.403333
30
0.0
10
389.135034
20
213.909507
30
0.0
10
392.161981
20
209.288225
30
0.0
10
394.131938
20
205.791739
30
0.0
10
396.120733
20
201.672303
30
0.0
10
397.736709
20
198.413211
30
0.0
10
398.843500
20
196.487768
30
0.0
10
399.646923
20
195.091022
30
0.0
10
400.533447
20
193.103048
30
0.0
10
402.758430
20
188.328102
30
0.0
10
403.865493
20
185.903323
30
0.0
10
404.633656
20
183.362741
30
0.0
10
405.227285
20
181.230923
30
0.0
10
405.998221
20
179.072671
30
0.0
10
406.809491
20
177.234019
30
0.0
10
407.524119
20
176.061003
30
0.0
10
407.810369
20
175.759633
30
0.0
10
408.071380
20
175.666037
30
0.0
10
409.075523
20
176.125293
30
0.0
10
412.097389
20
178.278705
30
0.0
10
412.097389
20
178.278705
30
0.0
62
0
0
LWPOLYLINE
100
AcDbPolyline
8
Layer_1
90
66
70
0
10
176.044431
20
267.758333
30
0.0
10
176.764313
20
268.681089
30
0.0
10
177.399595
20
269.842827
30
0.0
10
178.526688
20
273.121628
30
0.0
10
179.019010
20
274.712054
30
0.0
10
179.691860
20
276.033057
30
0.0
10
180.867953
20
277.586317
30
0.0
10
182.870004
20
279.873512
30
0.0
10
184.796539
20
282.154178
30
0.0
10
186.280042
20
284.185353
30
0.0
10
187.297799
20
285.932714
30
0.0
10
187.827096
20
287.361940
30
0.0
10
188.222306
20
288.736502
30
0.0
10
188.816528
20
290.236296
30
0.0
10
190.448009
20
293.264703
30
0.0
10
191.078642
20
294.148035
30
0.0
10
191.838839
20
294.835771
30
0.0
10
195.206106
20
296.667230
30
0.0
10
197.902089
20
298.097143
30
0.0
10
200.107121
20
299.581383
30
0.0
10
202.526720
20
301.664105
30
0.0
10
205.866402
20
304.889464
30
0.0
10
209.457373
20
308.700928
30
0.0
10
212.436309
20
312.817002
30
0.0
10
214.741190
20
316.459157
30
0.0
10
216.356037
20
319.308113
30
0.0
10
217.308777
20
321.543850
30
0.0
10
218.022415
20
323.833374
30
0.0
10
218.450573
20
325.995850
30
0.0
10
218.546872
20
327.850444
30
0.0
10
218.461613
20
329.494444
30
0.0
10
217.332724
20
329.573862
30
0.0
10
216.634785
20
329.551416
30
0.0
10
215.896989
20
329.263252
30
0.0
10
213.099390
20
327.221652
30
0.0
10
208.049161
20
323.491049
30
0.0
10
206.379872
20
322.533630
30
0.0
10
204.840072
20
321.897135
30
0.0
10
200.159700
20
320.034961
30
0.0
10
194.909043
20
317.593366
30
0.0
10
190.213550
20
315.127630
30
0.0
10
187.198672
20
313.193035
30
0.0
10
185.087257
20
311.314581
30
0.0
10
182.716228
20
308.992983
30
0.0
10
180.440121
20
306.588781
30
0.0
10
178.613472
20
304.462519
30
0.0
10
177.160114
20
302.440042
30
0.0
10
175.783707
20
300.184298
30
0.0
10
174.650453
20
297.989980
30
0.0
10
173.926551
20
296.151780
30
0.0
10
172.738282
20
293.222313
30
0.0
10
172.312011
20
292.305782
30
0.0
10
172.098594
20
291.476606
30
0.0
10
172.106838
20
288.586333
30
0.0
10
172.345013
20
285.849617
30
0.0
10
172.853739
20
284.139019
30
0.0
10
173.186948
20
283.205141
30
0.0
10
173.413178
20
281.816129
30
0.0
10
173.773502
20
275.531241
30
0.0
10
174.062921
20
270.203902
30
0.0
10
174.322960
20
267.617222
30
0.0
10
174.601818
20
267.150865
30
0.0
10
174.971764
20
267.018117
30
0.0
10
175.447676
20
267.220200
30
0.0
10
176.044431
20
267.758333
30
0.0
10
176.044431
20
267.758333
30
0.0
62
0
0
LWPOLYLINE
100
AcDbPolyline
8
Layer_1
90
138
70
0
10
155.442660
20
284.773511
30
0.0
10
156.113657
20
285.044155
30
0.0
10
156.679487
20
285.435688
30
0.0
10
157.440561
20
286.455259
30
0.0
10
157.608262
20
287.020217
30
0.0
10
157.615710
20
287.579902
30
0.0
10
157.449133
20
288.102774
30
0.0
10
157.094761
20
288.557293
30
0.0
10
156.230300
20
288.968085
30
0.0
10
154.907539
20
289.255623
30
0.0
10
153.226380
20
289.658757
30
0.0
10
151.480514
20
290.371812
30
0.0
10
147.575039
20
292.101016
30
0.0
10
145.749382
20
292.948386
30
0.0
10
144.057015
20
294.033018
30
0.0
10
142.498511
20
295.354494
30
0.0
10
141.074445
20
296.912397
30
0.0
10
140.084279
20
298.205212
30
0.0
10
139.573220
20
299.079126
30
0.0
10
139.499423
20
299.636551
30
0.0
10
139.821039
20
299.979898
30
0.0
10
140.465116
20
300.060367
30
0.0
10
141.433149
20
299.714073
30
0.0
10
146.115639
20
297.800190
30
0.0
10
148.400933
20
297.044637
30
0.0
10
150.080664
20
296.626252
30
0.0
10
152.546937
20
296.116442
30
0.0
10
154.679390
20
295.335424
30
0.0
10
155.448466
20
295.083095
30
0.0
10
156.524492
20
294.959006
30
0.0
10
161.141856
20
295.020210
30
0.0
10
164.861629
20
295.189711
30
0.0
10
166.853670
20
295.514780
30
0.0
10
167.369494
20
295.795537
30
0.0
10
167.654626
20
296.187050
30
0.0
10
167.801143
20
297.398158
30
0.0
10
167.520332
20
299.686024
30
0.0
10
167.219864
20
300.563756
30
0.0
10
166.854796
20
301.098035
30
0.0
10
165.769358
20
301.398241
30
0.0
10
163.684622
20
301.684351
30
0.0
10
162.071040
20
301.877832
30
0.0
10
160.820648
20
302.167533
30
0.0
10
157.649356
20
303.591891
30
0.0
10
152.428245
20
306.514302
30
0.0
10
150.813878
20
307.724115
30
0.0
10
149.228808
20
309.180371
30
0.0
10
147.889785
20
310.665075
30
0.0
10
147.013557
20
311.960232
30
0.0
10
145.370855
20
314.536667
30
0.0
10
143.710185
20
317.180306
30
0.0
10
143.355893
20
318.093087
30
0.0
10
143.249390
20
318.875466
30
0.0
10
142.370353
20
323.328453
30
0.0
10
141.701962
20
326.559485
30
0.0
10
141.665503
20
328.641738
30
0.0
10
142.560179
20
333.277460
30
0.0
10
144.130770
20
338.825276
30
0.0
10
144.664767
20
340.307335
30
0.0
10
145.230957
20
341.470760
30
0.0
10
147.199147
20
344.116434
30
0.0
10
149.067521
20
346.246323
30
0.0
10
150.482633
20
347.651804
30
0.0
10
154.533199
20
350.896386
30
0.0
10
156.089147
20
351.959785
30
0.0
10
159.259434
20
353.192221
30
0.0
10
161.863893
20
354.188889
30
0.0
10
168.951368
20
354.188889
30
0.0
10
176.038815
20
354.188889
30
0.0
10
180.457991
20
351.864648
30
0.0
10
182.981668
20
350.505631
30
0.0
10
184.653511
20
349.458354
30
0.0
10
186.050298
20
348.310160
30
0.0
10
187.748807
20
346.648391
30
0.0
10
189.787356
20
344.431006
30
0.0
10
191.663311
20
342.096587
30
0.0
10
193.156376
20
339.938874
30
0.0
10
194.046258
20
338.251602
30
0.0
10
194.645133
20
335.150940
30
0.0
10
194.966549
20
333.361340
30
0.0
10
195.341940
20
332.246111
30
0.0
10
195.849467
20
331.769026
30
0.0
10
196.495509
20
331.638614
30
0.0
10
197.238431
20
331.852371
30
0.0
10
198.036598
20
332.407796
30
0.0
10
198.928251
20
333.204510
30
0.0
10
198.878213
20
339.062512
30
0.0
10
198.828175
20
344.920514
30
0.0
10
196.704170
20
349.161467
30
0.0
10
194.835295
20
352.670374
30
0.0
10
194.003544
20
353.905328
30
0.0
10
193.111100
20
354.920688
30
0.0
10
192.061102
20
355.811506
30
0.0
10
190.756689
20
356.672838
30
0.0
10
186.997165
20
358.687257
30
0.0
10
181.965623
20
361.244444
30
0.0
10
174.315651
20
361.244444
30
0.0
10
166.665679
20
361.244444
30
0.0
10
164.316912
20
360.297363
30
0.0
10
158.606005
20
358.292456
30
0.0
10
155.609697
20
357.226969
30
0.0
10
153.127168
20
356.150728
30
0.0
10
150.222565
20
354.771452
30
0.0
10
148.694889
20
353.979349
30
0.0
10
146.596751
20
352.472572
30
0.0
10
139.776251
20
346.601034
30
0.0
10
137.099616
20
344.017141
30
0.0
10
136.427328
20
343.157278
30
0.0
10
136.041915
20
342.409074
30
0.0
10
134.879032
20
340.428763
30
0.0
10
132.759331
20
337.438040
30
0.0
10
130.524269
20
334.232519
30
0.0
10
128.737894
20
331.165415
30
0.0
10
127.486343
20
328.402058
30
0.0
10
126.855751
20
326.107778
30
0.0
10
126.685040
20
323.851210
30
0.0
10
126.632153
20
320.803196
30
0.0
10
126.695651
20
317.796918
30
0.0
10
126.874095
20
315.665556
30
0.0
10
127.548409
20
313.081868
30
0.0
10
128.461143
20
309.130756
30
0.0
10
129.221057
20
305.893467
30
0.0
10
130.373012
20
302.612665
30
0.0
10
131.831688
20
299.497386
30
0.0
10
133.511764
20
296.756667
30
0.0
10
134.986089
20
294.964704
30
0.0
10
137.016844
20
292.873677
30
0.0
10
139.308044
20
290.770807
30
0.0
10
141.563705
20
288.943316
30
0.0
10
144.194027
20
287.132067
30
0.0
10
145.163715
20
286.681442
30
0.0
10
146.305236
20
286.310888
30
0.0
10
149.599503
20
285.210899
30
0.0
10
151.158885
20
284.753517
30
0.0
10
152.666289
20
284.527131
30
0.0
10
154.101117
20
284.533283
30
0.0
10
155.442773
20
284.773511
30
0.0
10
155.442660
20
284.773511
30
0.0
62
0
0
LWPOLYLINE
100
AcDbPolyline
8
Layer_1
90
24
70
0
10
164.523189
20
336.208031
30
0.0
10
164.906432
20
336.894203
30
0.0
10
165.225350
20
338.231593
30
0.0
10
165.446320
20
340.025231
30
0.0
10
165.535717
20
342.080144
30
0.0
10
165.432251
20
343.416177
30
0.0
10
165.246938
20
343.862161
30
0.0
10
164.929303
20
344.190507
30
0.0
10
163.767262
20
344.585430
30
0.0
10
161.686517
20
344.783241
30
0.0
10
159.426276
20
344.831243
30
0.0
10
158.274365
20
344.629288
30
0.0
10
157.750701
20
344.103743
30
0.0
10
157.378017
20
343.165243
30
0.0
10
157.154880
20
341.808273
30
0.0
10
157.079860
20
340.027316
30
0.0
10
157.213234
20
338.023807
30
0.0
10
157.496805
20
337.463671
30
0.0
10
158.028832
20
336.852316
30
0.0
10
158.979356
20
335.844444
30
0.0
10
161.502649
20
335.844444
30
0.0
10
163.498641
20
335.939074
30
0.0
10
164.523189
20
336.208031
30
0.0
10
164.523189
20
336.208031
30
0.0
62
0
0
LWPOLYLINE
100
AcDbPolyline
8
Layer_1
90
543
70
0
10
87.213660
20
51.728765
30
0.0
10
86.820723
20
52.159172
30
0.0
10
86.505850
20
52.756396
30
0.0
10
85.926924
20
54.903765
30
0.0
10
85.497603
20
56.508326
30
0.0
10
84.738772
20
58.514738
30
0.0
10
81.444473
20
65.616667
30
0.0
10
78.871894
20
71.108127
30
0.0
10
77.322660
20
74.914499
30
0.0
10
76.563895
20
77.700987
30
0.0
10
76.362724
20
80.132795
30
0.0
10
76.549919
20
82.136207
30
0.0
10
77.108803
20
84.958964
30
0.0
10
79.325436
20
92.992222
30
0.0
10
80.407067
20
96.960305
30
0.0
10
81.184406
20
100.555919
30
0.0
10
81.792411
20
103.395992
30
0.0
10
82.482205
20
105.389313
30
0.0
10
83.219369
20
106.892344
30
0.0
10
82.147235
20
108.657277
30
0.0
10
79.754781
20
112.008722
30
0.0
10
77.366242
20
115.313007
30
0.0
10
74.305825
20
120.086420
30
0.0
10
71.310844
20
125.133248
30
0.0
10
69.118615
20
129.257778
30
0.0
10
67.315987
20
133.746652
30
0.0
10
65.457389
20
139.617517
30
0.0
10
63.648384
20
146.503191
30
0.0
10
61.994536
20
154.036494
30
0.0
10
60.984527
20
158.543044
30
0.0
10
59.794141
20
162.972069
30
0.0
10
58.557813
20
166.862672
30
0.0
10
57.409977
20
169.753957
30
0.0
10
56.774392
20
171.478974
30
0.0
10
56.601806
20
173.284444
30
0.0
10
56.510539
20
175.345288
30
0.0
10
56.274516
20
177.261541
30
0.0
10
55.930718
20
178.812024
30
0.0
10
55.516125
20
179.775556
30
0.0
10
54.956764
20
180.331219
30
0.0
10
54.237383
20
180.533209
30
0.0
10
53.179135
20
180.387156
30
0.0
10
51.603171
20
179.898689
30
0.0
10
50.280457
20
179.472780
30
0.0
10
49.129712
20
179.265580
30
0.0
10
45.177168
20
179.308196
30
0.0
10
42.230940
20
179.471212
30
0.0
10
40.187296
20
179.756601
30
0.0
10
38.448367
20
180.294482
30
0.0
10
36.416285
20
181.214974
30
0.0
10
34.620728
20
182.195974
30
0.0
10
32.874172
20
183.368045
30
0.0
10
31.179885
20
184.725664
30
0.0
10
29.541133
20
186.263309
30
0.0
10
27.961183
20
187.975456
30
0.0
10
26.443303
20
189.856582
30
0.0
10
23.606820
20
194.103681
30
0.0
10
21.057822
20
198.960423
30
0.0
10
18.822446
20
204.382623
30
0.0
10
16.926828
20
210.326099
30
0.0
10
15.397106
20
216.746667
30
0.0
10
14.478425
20
222.060136
30
0.0
10
13.866848
20
227.290768
30
0.0
10
13.559912
20
232.359323
30
0.0
10
13.555155
20
237.186562
30
0.0
10
13.850112
20
241.693244
30
0.0
10
14.442320
20
245.800131
30
0.0
10
15.329317
20
249.427984
30
0.0
10
16.508639
20
252.497562
30
0.0
10
17.747728
20
254.652713
30
0.0
10
19.292930
20
256.457619
30
0.0
10
20.732242
20
258.102301
30
0.0
10
21.440161
20
259.722959
30
0.0
10
22.418104
20
263.708444
30
0.0
10
23.273025
20
268.683430
30
0.0
10
23.846646
20
271.717826
30
0.0
10
24.529338
20
273.665527
30
0.0
10
25.159847
20
275.403793
30
0.0
10
25.576890
20
277.749903
30
0.0
10
25.906901
20
279.694796
30
0.0
10
26.651973
20
282.412193
30
0.0
10
30.631040
20
294.216667
30
0.0
10
33.793950
20
302.229449
30
0.0
10
37.553527
20
310.585556
30
0.0
10
39.523831
20
314.397892
30
0.0
10
41.534561
20
317.893633
30
0.0
10
43.597990
20
321.088494
30
0.0
10
45.726390
20
323.998191
30
0.0
10
47.932034
20
326.638441
30
0.0
10
50.227195
20
329.024959
30
0.0
10
52.624144
20
331.173462
30
0.0
10
55.135153
20
333.099664
30
0.0
10
58.026009
20
335.363996
30
0.0
10
60.451769
20
337.645050
30
0.0
10
62.583703
20
339.936667
30
0.0
10
62.404013
20
342.053333
30
0.0
10
62.117516
20
344.553719
30
0.0
10
61.624229
20
347.375491
30
0.0
10
59.693804
20
355.600000
30
0.0
10
57.981988
20
362.522448
30
0.0
10
57.117235
20
367.429570
30
0.0
10
56.787925
20
373.075430
30
0.0
10
56.682437
20
382.214092
30
0.0
10
56.660723
20
394.283729
30
0.0
10
56.819704
20
396.151677
30
0.0
10
57.146100
20
396.965675
30
0.0
10
57.661359
20
398.045947
30
0.0
10
58.113723
20
399.402617
30
0.0
10
58.729790
20
402.590000
30
0.0
10
58.956029
20
404.028790
30
0.0
10
59.445512
20
405.424793
30
0.0
10
60.475349
20
407.391308
30
0.0
10
62.322648
20
410.541634
30
0.0
10
66.340505
20
417.547778
30
0.0
10
70.647780
20
424.565185
30
0.0
10
73.126428
20
428.063293
30
0.0
10
75.634470
20
431.049988
30
0.0
10
78.242071
20
433.601219
30
0.0
10
81.019390
20
435.792936
30
0.0
10
83.573864
20
437.442159
30
0.0
10
87.006985
20
439.436639
30
0.0
10
95.135440
20
443.692605
30
0.0
10
98.234226
20
445.309842
30
0.0
10
100.129221
20
446.482109
30
0.0
10
101.323311
20
447.945536
30
0.0
10
102.871772
20
450.787084
30
0.0
10
104.211093
20
453.373269
30
0.0
10
105.702387
20
455.934039
30
0.0
10
110.426635
20
463.069652
30
0.0
10
113.077200
20
466.851597
30
0.0
10
115.297403
20
469.759838
30
0.0
10
117.594007
20
472.419002
30
0.0
10
120.473775
20
475.453718
30
0.0
10
124.958375
20
479.826696
30
0.0
10
127.165025
20
481.663723
30
0.0
10
129.706904
20
483.513755
30
0.0
10
136.873328
20
487.990783
30
0.0
10
148.611613
20
494.733665
30
0.0
10
157.861813
20
500.149275
30
0.0
10
160.477453
20
501.588001
30
0.0
10
163.588313
20
502.955122
30
0.0
10
167.259645
20
504.268464
30
0.0
10
171.556699
20
505.545854
30
0.0
10
176.544727
20
506.805119
30
0.0
10
182.288981
20
508.064084
30
0.0
10
196.307168
20
510.652423
30
0.0
10
206.172144
20
512.120823
30
0.0
10
210.280553
20
512.520034
30
0.0
10
214.681077
20
512.793999
30
0.0
10
221.038996
20
513.298649
30
0.0
10
222.808604
20
513.650187
30
0.0
10
223.898087
20
514.104763
30
0.0
10
228.577293
20
516.115432
30
0.0
10
234.548279
20
518.387499
30
0.0
10
236.780481
20
518.920909
30
0.0
10
239.769390
20
519.412909
30
0.0
10
249.803713
20
520.880447
30
0.0
10
260.936057
20
522.962412
30
0.0
10
270.652781
20
524.805311
30
0.0
10
278.489081
20
526.030987
30
0.0
10
286.086092
20
526.857682
30
0.0
10
295.084952
20
527.503641
30
0.0
10
299.295563
20
527.663922
30
0.0
10
303.681733
20
527.661204
30
0.0
10
307.830366
20
527.503266
30
0.0
10
311.328364
20
527.197882
30
0.0
10
318.857235
20
526.344487
30
0.0
10
326.868000
20
525.208754
30
0.0
10
333.014514
20
523.652342
30
0.0
10
340.880672
20
521.284174
30
0.0
10
348.787787
20
518.637914
30
0.0
10
355.057174
20
516.247230
30
0.0
10
366.835623
20
510.983867
30
0.0
10
371.455021
20
508.732971
30
0.0
10
374.812729
20
506.931687
30
0.0
10
381.508301
20
502.908658
30
0.0
10
388.118876
20
498.722897
30
0.0
10
393.852669
20
494.888809
30
0.0
10
397.917896
20
491.920795
30
0.0
10
404.455263
20
486.227797
30
0.0
10
413.842595
20
477.675583
30
0.0
10
417.034042
20
474.884639
30
0.0
10
417.950124
20
474.384738
30
0.0
10
418.922595
20
474.125880
30
0.0
10
421.865637
20
473.517705
30
0.0
10
423.900893
20
472.750564
30
0.0
10
426.352353
20
471.257930
30
0.0
10
429.123857
20
469.106885
30
0.0
10
432.119250
20
466.364515
30
0.0
10
434.161037
20
464.068933
30
0.0
10
435.662892
20
461.643405
30
0.0
10
436.729481
20
458.876338
30
0.0
10
437.465470
20
455.556143
30
0.0
10
437.997706
20
453.340059
30
0.0
10
438.420875
20
452.531596
30
0.0
10
439.070835
20
451.623794
30
0.0
10
441.921731
20
447.905429
30
0.0
10
444.005106
20
444.660619
30
0.0
10
446.303178
20
440.304901
30
0.0
10
448.382582
20
435.723090
30
0.0
10
449.809955
20
431.800000
30
0.0
10
450.729671
20
428.459553
30
0.0
10
451.226580
20
426.046685
30
0.0
10
451.385219
20
423.984267
30
0.0
10
451.290126
20
421.695169
30
0.0
10
451.038722
20
416.688516
30
0.0
10
451.012758
20
414.700362
30
0.0
10
453.297262
20
411.185182
30
0.0
10
456.012688
20
406.878238
30
0.0
10
458.229219
20
403.058644
30
0.0
10
459.976870
20
399.645850
30
0.0
10
461.285661
20
396.559302
30
0.0
10
462.185606
20
393.718449
30
0.0
10
462.706724
20
391.042739
30
0.0
10
462.879030
20
388.451619
30
0.0
10
462.732543
20
385.864537
30
0.0
10
462.151533
20
382.904084
30
0.0
10
461.110640
20
378.923089
30
0.0
10
459.977588
20
375.221128
30
0.0
10
459.120099
20
373.097778
30
0.0
10
457.122858
20
369.502743
30
0.0
10
456.291837
20
367.733516
30
0.0
10
455.951646
20
366.743432
30
0.0
10
456.179629
20
366.110319
30
0.0
10
456.727758
20
365.424522
30
0.0
10
457.897852
20
364.672089
30
0.0
10
459.765693
20
363.787676
30
0.0
10
461.860816
20
362.972986
30
0.0
10
463.712758
20
362.429721
30
0.0
10
465.741522
20
361.897586
30
0.0
10
467.962231
20
361.140879
30
0.0
10
472.897807
20
358.993620
30
0.0
10
478.356135
20
356.067676
30
0.0
10
484.173869
20
352.442780
30
0.0
10
489.608866
20
348.622250
30
0.0
10
494.023615
20
344.935281
30
0.0
10
498.124684
20
340.726776
30
0.0
10
502.618643
20
335.341637
30
0.0
10
505.105187
20
332.070288
30
0.0
10
507.314049
20
328.838116
30
0.0
10
509.279019
20
325.575200
30
0.0
10
511.033885
20
322.211619
30
0.0
10
512.612438
20
318.677452
30
0.0
10
514.048465
20
314.902777
30
0.0
10
515.375755
20
310.817674
30
0.0
10
516.628098
20
306.352222
30
0.0
10
518.164399
20
299.804356
30
0.0
10
519.728683
20
292.020205
30
0.0
10
521.080908
20
284.277674
30
0.0
10
521.981035
20
277.854664
30
0.0
10
522.516398
20
271.374509
30
0.0
10
522.739014
20
264.510969
30
0.0
10
522.658503
20
257.398612
30
0.0
10
522.284487
20
250.172005
30
0.0
10
521.626586
20
242.965717
30
0.0
10
520.694422
20
235.914315
30
0.0
10
519.497614
20
229.152368
30
0.0
10
518.045785
20
222.814444
30
0.0
10
515.964519
20
215.713123
30
0.0
10
514.843484
20
212.708852
30
0.0
10
513.518404
20
209.630744
30
0.0
10
511.956631
20
206.436746
30
0.0
10
510.321807
20
203.790557
30
0.0
10
508.191651
20
201.092796
30
0.0
10
505.143883
20
197.744080
30
0.0
10
497.071785
20
189.138272
30
0.0
10
492.959640
20
184.516677
30
0.0
10
491.956931
20
183.167667
30
0.0
10
491.426268
20
182.175960
30
0.0
10
491.195002
20
181.328638
30
0.0
10
491.090486
20
180.412785
30
0.0
10
490.384451
20
175.965556
30
0.0
10
489.532563
20
171.167778
30
0.0
10
489.053304
20
169.009247
30
0.0
10
488.364728
20
166.990099
30
0.0
10
487.651040
20
164.934829
30
0.0
10
487.111492
20
162.689484
30
0.0
10
486.775682
20
161.219174
30
0.0
10
486.177301
20
159.482067
30
0.0
10
483.566837
20
153.602718
30
0.0
10
478.254501
20
142.008994
30
0.0
10
477.220302
20
139.376059
30
0.0
10
476.570068
20
137.219549
30
0.0
10
475.099916
20
132.618028
30
0.0
10
474.743467
20
131.559683
30
0.0
10
474.541180
20
129.984098
30
0.0
10
474.360014
20
121.778889
30
0.0
10
474.253927
20
112.465556
30
0.0
10
475.701191
20
108.009605
30
0.0
10
478.638295
20
99.761855
30
0.0
10
480.095363
20
96.165438
30
0.0
10
481.358081
20
93.402743
30
0.0
10
482.420050
20
90.874612
30
0.0
10
482.528699
20
90.161569
30
0.0
10
482.363967
20
89.820097
30
0.0
10
481.931986
20
89.853364
30
0.0
10
481.238888
20
90.264537
30
0.0
10
479.093869
20
92.233270
30
0.0
10
475.788300
20
96.039740
30
0.0
10
472.778420
20
100.196527
30
0.0
10
470.355142
20
104.263317
30
0.0
10
469.454389
20
106.125367
30
0.0
10
468.809380
20
107.799801
30
0.0
10
466.964257
20
113.107505
30
0.0
10
465.681173
20
116.183608
30
0.0
10
465.204353
20
116.750028
30
0.0
10
464.657274
20
117.024301
30
0.0
10
463.988709
20
116.974100
30
0.0
10
463.147431
20
116.567095
30
0.0
10
460.741825
20
114.553360
30
0.0
10
457.030638
20
110.724470
30
0.0
10
450.398857
20
103.976809
30
0.0
10
444.223616
20
98.279529
30
0.0
10
441.670220
20
96.140500
30
0.0
10
439.666583
20
94.642929
30
0.0
10
438.357915
20
93.913103
30
0.0
10
438.009572
20
93.875559
30
0.0
10
437.889424
20
94.077310
30
0.0
10
438.009075
20
94.488864
30
0.0
10
438.458310
20
95.182295
30
0.0
10
440.887217
20
98.150878
30
0.0
10
444.627169
20
103.089766
30
0.0
10
448.428900
20
108.050697
30
0.0
10
450.037482
20
110.117576
30
0.0
10
451.374369
20
112.171311
30
0.0
10
454.909880
20
117.573975
30
0.0
10
457.267169
20
121.166576
30
0.0
10
459.575521
20
125.088255
30
0.0
10
463.899532
20
132.426033
30
0.0
10
466.039196
20
136.209045
30
0.0
10
468.386612
20
141.393333
30
0.0
10
471.419400
20
148.344890
30
0.0
10
474.416628
20
156.737135
30
0.0
10
477.268935
20
164.836179
30
0.0
10
477.871010
20
165.576444
30
0.0
10
478.699294
20
166.117976
30
0.0
10
479.476372
20
166.613558
30
0.0
10
479.949200
20
167.239442
30
0.0
10
480.291360
20
168.787818
30
0.0
10
480.583071
20
171.596939
30
0.0
10
481.071569
20
181.725824
30
0.0
10
481.725489
20
196.838376
30
0.0
10
482.100900
20
200.216980
30
0.0
10
482.635419
20
202.494444
30
0.0
10
483.263547
20
205.217924
30
0.0
10
483.433035
20
208.562222
30
0.0
10
483.396658
20
210.883190
30
0.0
10
483.209071
20
212.357836
30
0.0
10
482.833238
20
213.134119
30
0.0
10
482.232123
20
213.360000
30
0.0
10
481.683045
20
213.197614
30
0.0
10
481.118803
20
212.610527
30
0.0
10
479.515960
20
209.562672
30
0.0
10
477.683793
20
206.255324
30
0.0
10
475.386456
20
202.898386
30
0.0
10
473.224904
20
200.295144
30
0.0
10
472.382845
20
199.527188
30
0.0
10
471.800089
20
199.248889
30
0.0
10
471.625832
20
199.334342
30
0.0
10
471.534636
20
199.600962
30
0.0
10
471.611389
20
200.739252
30
0.0
10
472.871207
20
205.866915
30
0.0
10
474.285631
20
211.212719
30
0.0
10
474.985634
20
214.880299
30
0.0
10
475.061818
20
217.617197
30
0.0
10
474.604786
20
220.170954
30
0.0
10
473.596064
20
223.503972
30
0.0
10
471.868419
20
227.894254
30
0.0
10
468.908435
20
234.551814
30
0.0
10
464.202695
20
244.686667
30
0.0
10
461.664276
20
250.395034
30
0.0
10
459.923078
20
254.806055
30
0.0
10
458.749598
20
258.293221
30
0.0
10
458.343141
20
268.493833
30
0.0
10
457.265525
20
292.033822
30
0.0
10
456.731225
20
299.870274
30
0.0
10
456.067809
20
307.340000
30
0.0
10
455.333104
20
314.398909
30
0.0
10
454.579348
20
318.877421
30
0.0
10
454.062681
20
320.703105
30
0.0
10
453.382077
20
322.548583
30
0.0
10
451.316824
20
327.185443
30
0.0
10
447.898729
20
334.833225
30
0.0
10
445.375376
20
341.385991
30
0.0
10
443.072738
20
348.793509
30
0.0
10
440.316789
20
359.005547
30
0.0
10
438.104298
20
367.116278
30
0.0
10
436.187063
20
373.195452
30
0.0
10
434.248074
20
378.150120
30
0.0
10
431.970321
20
382.887336
30
0.0
10
429.412008
20
387.398099
30
0.0
10
426.428606
20
391.841067
30
0.0
10
422.973077
20
396.265921
30
0.0
10
418.998382
20
400.722343
30
0.0
10
414.457483
20
405.260015
30
0.0
10
409.303341
20
409.928619
30
0.0
10
403.488918
20
414.777838
30
0.0
10
396.967174
20
419.857352
30
0.0
10
388.077174
20
426.358321
30
0.0
10
377.277475
20
433.464218
30
0.0
10
368.530519
20
438.843502
30
0.0
10
365.693935
20
439.897866
30
0.0
10
361.235329
20
441.232908
30
0.0
10
350.964952
20
444.201336
30
0.0
10
342.075891
20
446.875613
30
0.0
10
335.483588
20
448.690041
30
0.0
10
330.387800
20
449.848138
30
0.0
10
325.988285
20
450.553421
30
0.0
10
319.172312
20
451.221843
30
0.0
10
311.633965
20
451.627077
30
0.0
10
303.935001
20
451.749664
30
0.0
10
296.637174
20
451.570144
30
0.0
10
290.048760
20
451.359845
30
0.0
10
288.053466
20
451.493444
30
0.0
10
285.771618
20
451.811847
30
0.0
10
266.748519
20
454.593584
30
0.0
10
252.501370
20
456.264015
30
0.0
10
246.462392
20
456.748891
30
0.0
10
240.769738
20
457.035622
30
0.0
10
235.140855
20
457.150768
30
0.0
10
229.293189
20
457.120890
30
0.0
10
220.693870
20
456.876432
30
0.0
10
218.004738
20
456.636777
30
0.0
10
215.272558
20
456.249428
30
0.0
10
210.676625
20
455.419803
30
0.0
10
206.265416
20
454.402166
30
0.0
10
201.982241
20
453.175162
30
0.0
10
197.770409
20
451.717439
30
0.0
10
193.573232
20
450.007640
30
0.0
10
189.334018
20
448.024414
30
0.0
10
184.996079
20
445.746406
30
0.0
10
180.502724
20
443.152262
30
0.0
10
176.384403
20
440.614024
30
0.0
10
171.807506
20
437.613695
30
0.0
10
156.090501
20
426.739036
30
0.0
10
137.746057
20
413.943538
30
0.0
10
134.259667
20
411.422870
30
0.0
10
131.251157
20
408.947156
30
0.0
10
128.274302
20
406.121139
30
0.0
10
124.882876
20
402.549566
30
0.0
10
120.821819
20
397.995316
30
0.0
10
116.993771
20
393.422121
30
0.0
10
113.406236
20
388.840664
30
0.0
10
110.066717
20
384.261628
30
0.0
10
106.982717
20
379.695694
30
0.0
10
104.161739
20
375.153546
30
0.0
10
101.611285
20
370.645865
30
0.0
10
99.338858
20
366.183333
30
0.0
10
97.724512
20
362.660816
30
0.0
10
96.312827
20
359.228632
30
0.0
10
95.095111
20
355.855981
30
0.0
10
94.062671
20
352.512066
30
0.0
10
93.206814
20
349.166086
30
0.0
10
92.518847
20
345.787244
30
0.0
10
91.990077
20
342.344741
30
0.0
10
91.611811
20
338.807778
30
0.0
10
90.886034
20
331.408207
30
0.0
10
90.038507
20
325.958341
30
0.0
10
89.662681
20
323.696793
30
0.0
10
89.451626
20
321.483747
30
0.0
10
89.327194
20
313.858092
30
0.0
10
89.271935
20
307.908494
30
0.0
10
89.113739
20
303.920239
30
0.0
10
88.818896
20
301.409413
30
0.0
10
88.353697
20
299.892099
30
0.0
10
84.866333
20
294.529877
30
0.0
10
82.506687
20
290.979331
30
0.0
10
80.998026
20
288.431111
30
0.0
10
79.889530
20
285.720301
30
0.0
10
78.475101
20
281.592666
30
0.0
10
75.418352
20
271.215556
30
0.0
10
73.271650
20
262.526043
30
0.0
10
72.738358
20
259.538926
30
0.0
10
72.417003
20
256.742692
30
0.0
10
71.589358
20
250.869394
30
0.0
10
71.096354
20
247.960703
30
0.0
10
70.698827
20
244.109194
30
0.0
10
69.878781
20
229.728889
30
0.0
10
68.812348
20
211.384444
30
0.0
10
68.434385
20
203.826032
30
0.0
10
68.363615
20
193.040000
30
0.0
10
68.451737
20
184.586040
30
0.0
10
68.674747
20
178.438923
30
0.0
10
69.079891
20
173.786236
30
0.0
10
69.714415
20
169.815566
30
0.0
10
70.710095
20
163.265556
30
0.0
10
71.221896
20
159.739600
30
0.0
10
72.077415
20
155.495463
30
0.0
10
74.563751
20
145.753762
30
0.0
10
77.657396
20
135.842680
30
0.0
10
79.272050
20
131.386817
30
0.0
10
80.846642
20
127.564444
30
0.0
10
82.566093
20
124.229663
30
0.0
10
84.822423
20
120.640976
30
0.0
10
87.464013
20
117.021524
30
0.0
10
90.339243
20
113.594444
30
0.0
10
93.901400
20
109.484727
30
0.0
10
96.405634
20
106.139989
30
0.0
10
98.134951
20
103.135812
30
0.0
10
99.372358
20
100.047778
30
0.0
10
100.626751
20
96.943333
30
0.0
10
101.041597
20
95.930861
30
0.0
10
101.329823
20
94.685556
30
0.0
10
101.711451
20
93.110205
30
0.0
10
102.350847
20
91.304223
30
0.0
10
102.993020
20
89.604500
30
0.0
10
103.109975
20
88.744372
30
0.0
10
102.963445
20
88.604823
30
0.0
10
102.675951
20
88.645974
30
0.0
10
101.665188
20
89.231442
30
0.0
10
100.034213
20
90.466516
30
0.0
10
98.503724
20
91.870918
30
0.0
10
96.993116
20
93.525732
30
0.0
10
95.421783
20
95.512043
30
0.0
10
93.752335
20
97.598895
30
0.0
10
92.319692
20
99.083675
30
0.0
10
91.153722
20
99.939482
30
0.0
10
90.284294
20
100.139415
30
0.0
10
89.821365
20
99.880224
30
0.0
10
89.300990
20
98.959730
30
0.0
10
87.195767
20
93.102063
30
0.0
10
85.632025
20
88.284785
30
0.0
10
84.626942
20
84.498095
30
0.0
10
84.054934
20
81.175930
30
0.0
10
83.790417
20
77.752222
30
0.0
10
83.752622
20
74.909313
30
0.0
10
83.887154
20
72.214157
30
0.0
10
84.200228
20
69.641191
30
0.0
10
84.698058
20
67.164850
30
0.0
10
85.386860
20
64.759569
30
0.0
10
86.272847
20
62.399784
30
0.0
10
87.362233
20
60.059930
30
0.0
10
88.661234
20
57.714444
30
0.0
10
89.509029
20
56.162820
30
0.0
10
89.976027
20
54.937424
30
0.0
10
90.097823
20
53.901559
30
0.0
10
89.910011
20
52.918529
30
0.0
10
89.591752
20
52.258834
30
0.0
10
89.134951
20
51.669022
30
0.0
10
88.630431
20
51.244888
30
0.0
10
88.169011
20
51.082222
30
0.0
10
87.213660
20
51.728765
30
0.0
10
87.213660
20
51.728765
30
0.0
62
0
0
LWPOLYLINE
100
AcDbPolyline
8
Layer_1
90
59
70
0
10
60.170449
20
240.219061
30
0.0
10
61.222394
20
240.849485
30
0.0
10
62.029588
20
241.505204
30
0.0
10
62.396128
20
242.082771
30
0.0
10
62.606031
20
243.534833
30
0.0
10
62.856697
20
253.381143
30
0.0
10
63.167116
20
263.072648
30
0.0
10
63.485092
20
266.528743
30
0.0
10
63.988433
20
269.388756
30
0.0
10
64.734782
20
271.900454
30
0.0
10
65.781781
20
274.311604
30
0.0
10
67.187071
20
276.869975
30
0.0
10
69.008295
20
279.823333
30
0.0
10
70.841769
20
282.871622
30
0.0
10
72.451487
20
285.850820
30
0.0
10
73.743954
20
288.577114
30
0.0
10
74.625674
20
290.866689
30
0.0
10
75.227838
20
292.409330
30
0.0
10
75.895787
20
293.688911
30
0.0
10
76.456852
20
294.708986
30
0.0
10
76.802059
20
295.627778
30
0.0
10
77.920054
20
298.591111
30
0.0
10
78.760473
20
300.982959
30
0.0
10
79.480009
20
303.761225
30
0.0
10
79.943182
20
306.404596
30
0.0
10
79.890406
20
306.935296
30
0.0
10
79.665203
20
307.262897
30
0.0
10
79.387588
20
307.492391
30
0.0
10
79.090155
20
307.565199
30
0.0
10
77.963037
20
307.232248
30
0.0
10
76.155872
20
306.274029
30
0.0
10
73.571828
20
304.642689
30
0.0
10
67.401406
20
300.660506
30
0.0
10
62.582574
20
297.426195
30
0.0
10
58.342115
20
294.015026
30
0.0
10
54.614102
20
290.368600
30
0.0
10
51.332604
20
286.428519
30
0.0
10
49.649798
20
284.122442
30
0.0
10
48.610035
20
282.469735
30
0.0
10
47.983614
20
281.046310
30
0.0
10
47.540836
20
279.428081
30
0.0
10
46.306113
20
275.204767
30
0.0
10
45.729978
20
272.996098
30
0.0
10
45.415148
20
270.362123
30
0.0
10
45.364770
20
267.351539
30
0.0
10
45.581988
20
264.013047
30
0.0
10
46.189989
20
259.540446
30
0.0
10
47.098364
20
255.500942
30
0.0
10
48.381532
20
251.625776
30
0.0
10
50.113912
20
247.646190
30
0.0
10
51.413072
20
245.189252
30
0.0
10
52.722665
20
243.239805
30
0.0
10
54.117734
20
241.701066
30
0.0
10
55.673323
20
240.476250
30
0.0
10
56.800195
20
239.874954
30
0.0
10
57.870282
20
239.634804
30
0.0
10
58.966171
20
239.751080
30
0.0
10
60.170449
20
240.219061
30
0.0
10
60.170449
20
240.219061
30
0.0
62
0
0
LWPOLYLINE
100
AcDbPolyline
8
Layer_1
90
83
70
0
10
483.683197
20
242.217307
30
0.0
10
484.718886
20
243.201249
30
0.0
10
485.340025
20
244.404748
30
0.0
10
485.638584
20
246.119644
30
0.0
10
485.706533
20
248.637778
30
0.0
10
485.687060
20
252.165556
30
0.0
10
484.244650
20
255.128889
30
0.0
10
482.353740
20
259.504127
30
0.0
10
481.822252
20
261.157726
30
0.0
10
481.633897
20
262.271566
30
0.0
10
481.911736
20
263.370062
30
0.0
10
482.619272
20
264.873849
30
0.0
10
483.567531
20
266.433321
30
0.0
10
484.567540
20
267.698869
30
0.0
10
485.425850
20
268.446031
30
0.0
10
486.393586
20
269.025912
30
0.0
10
487.452698
20
269.436160
30
0.0
10
488.585140
20
269.674425
30
0.0
10
489.772862
20
269.738356
30
0.0
10
490.997816
20
269.625602
30
0.0
10
492.241955
20
269.333813
30
0.0
10
493.487230
20
268.860637
30
0.0
10
495.330596
20
268.258350
30
0.0
10
497.685878
20
267.840065
30
0.0
10
500.021070
20
267.447928
30
0.0
10
501.919212
20
266.945618
30
0.0
10
504.514163
20
266.055976
30
0.0
10
506.312607
20
265.628187
30
0.0
10
507.648221
20
265.615345
30
0.0
10
508.854682
20
265.970540
30
0.0
10
509.640194
20
266.427903
30
0.0
10
510.164338
20
267.041765
30
0.0
10
510.425758
20
267.822677
30
0.0
10
510.423096
20
268.781188
30
0.0
10
510.154997
20
269.927848
30
0.0
10
509.620103
20
271.273207
30
0.0
10
507.744504
20
274.602222
30
0.0
10
503.879811
20
280.245502
30
0.0
10
499.238291
20
286.458713
30
0.0
10
494.653551
20
292.164913
30
0.0
10
490.959196
20
296.287162
30
0.0
10
488.273090
20
298.756870
30
0.0
10
485.130337
20
301.316044
30
0.0
10
481.963417
20
303.630627
30
0.0
10
479.204810
20
305.366561
30
0.0
10
475.492100
20
307.131709
30
0.0
10
471.821725
20
308.398122
30
0.0
10
468.781932
20
309.001849
30
0.0
10
467.682330
20
309.003970
30
0.0
10
466.960966
20
308.778938
30
0.0
10
466.617765
20
307.910250
30
0.0
10
466.434872
20
306.232627
30
0.0
10
466.439278
20
304.293040
30
0.0
10
466.657972
20
302.638460
30
0.0
10
467.535913
20
300.306557
30
0.0
10
469.190352
20
296.512290
30
0.0
10
472.127354
20
289.652710
30
0.0
10
472.856899
20
287.628725
30
0.0
10
471.309615
20
284.040947
30
0.0
10
469.101306
20
278.549297
30
0.0
10
468.341308
20
276.239325
30
0.0
10
467.776652
20
274.066258
30
0.0
10
467.381766
20
271.914844
30
0.0
10
467.131077
20
269.669837
30
0.0
10
466.960006
20
264.438045
30
0.0
10
467.052081
20
260.128463
30
0.0
10
467.225429
20
259.145233
30
0.0
10
467.532607
20
258.423523
30
0.0
10
468.069020
20
257.029391
30
0.0
10
468.552304
20
255.182144
30
0.0
10
468.894610
20
253.645015
30
0.0
10
469.287345
20
252.552666
30
0.0
10
469.961544
20
251.424206
30
0.0
10
471.148241
20
249.778746
30
0.0
10
473.723673
20
246.349021
30
0.0
10
475.549380
20
244.115227
30
0.0
10
476.897074
20
242.771009
30
0.0
10
478.038470
20
242.010015
30
0.0
10
479.539541
20
241.468066
30
0.0
10
481.045636
20
241.324345
30
0.0
10
482.459344
20
241.575282
30
0.0
10
483.683254
20
242.217307
30
0.0
10
483.683197
20
242.217307
30
0.0
62
0
0
LWPOLYLINE
100
AcDbPolyline
8
Layer_1
90
59
70
0
10
467.473030
20
325.582619
30
0.0
10
468.166104
20
326.394706
30
0.0
10
468.911460
20
327.751242
30
0.0
10
469.835161
20
329.364131
30
0.0
10
471.097158
20
330.998435
30
0.0
10
472.476334
20
332.399990
30
0.0
10
473.751571
20
333.314633
30
0.0
10
475.413342
20
333.778206
30
0.0
10
477.991290
20
334.151093
30
0.0
10
480.701202
20
334.348694
30
0.0
10
482.758863
20
334.286408
30
0.0
10
483.720483
20
334.110890
30
0.0
10
484.583299
20
333.762459
30
0.0
10
487.963295
20
331.503838
30
0.0
10
490.169312
20
330.007176
30
0.0
10
491.614933
20
329.169561
30
0.0
10
492.509934
20
328.890952
30
0.0
10
493.064094
20
329.071309
30
0.0
10
493.345044
20
329.381006
30
0.0
10
493.478827
20
329.750606
30
0.0
10
493.247853
20
330.796060
30
0.0
10
492.257085
20
332.460756
30
0.0
10
490.392438
20
334.997778
30
0.0
10
489.350837
20
336.519901
30
0.0
10
488.817722
20
337.603451
30
0.0
10
488.518010
20
338.349780
30
0.0
10
487.932325
20
339.234119
30
0.0
10
486.002083
20
341.323210
30
0.0
10
483.225079
20
343.683489
30
0.0
10
479.799396
20
346.127719
30
0.0
10
472.685413
20
350.458581
30
0.0
10
469.420242
20
352.301102
30
0.0
10
467.846805
20
353.060000
30
0.0
10
465.350719
20
353.928652
30
0.0
10
460.051686
20
355.585776
30
0.0
10
456.939396
20
356.374248
30
0.0
10
455.857158
20
355.352124
30
0.0
10
454.791335
20
354.187522
30
0.0
10
454.114232
20
353.042746
30
0.0
10
453.792464
20
351.839300
30
0.0
10
453.792646
20
350.498692
30
0.0
10
454.126304
20
348.797139
30
0.0
10
454.693302
20
346.956436
30
0.0
10
455.808701
20
343.182222
30
0.0
10
456.324794
20
341.347778
30
0.0
10
457.028804
20
339.513333
30
0.0
10
457.788232
20
337.430181
30
0.0
10
458.437573
20
334.997778
30
0.0
10
459.413292
20
331.620093
30
0.0
10
460.752440
20
328.820681
30
0.0
10
461.539250
20
327.669274
30
0.0
10
462.394055
20
326.700169
30
0.0
10
463.309237
20
325.925946
30
0.0
10
464.277174
20
325.359183
30
0.0
10
465.126094
20
325.060069
30
0.0
10
465.909794
20
324.995371
30
0.0
10
466.676148
20
325.168437
30
0.0
10
467.473030
20
325.582619
30
0.0
10
467.473030
20
325.582619
30
0.0
62
0
0
LWPOLYLINE
100
AcDbPolyline
8
Layer_1
90
57
70
0
10
293.206847
20
480.972941
30
0.0
10
296.291508
20
483.371830
30
0.0
10
298.041395
20
484.633757
30
0.0
10
299.127644
20
485.140000
30
0.0
10
303.072236
20
483.994881
30
0.0
10
305.487613
20
483.237250
30
0.0
10
306.656655
20
483.023757
30
0.0
10
306.905629
20
483.442641
30
0.0
10
306.871525
20
484.220296
30
0.0
10
305.950422
20
486.871837
30
0.0
10
305.252804
20
488.631910
30
0.0
10
304.962645
20
489.708757
30
0.0
10
305.679821
20
490.871131
30
0.0
10
307.643756
20
493.027984
30
0.0
10
309.537291
20
495.093854
30
0.0
10
310.324867
20
496.228632
30
0.0
10
310.186970
20
496.585489
30
0.0
10
309.627884
20
496.816362
30
0.0
10
306.373756
20
497.090440
30
0.0
10
303.537482
20
497.411747
30
0.0
10
301.508612
20
498.065648
30
0.0
10
300.797700
20
498.516944
30
0.0
10
300.289535
20
499.050936
30
0.0
10
299.984417
20
499.667471
30
0.0
10
299.882645
20
500.366400
30
0.0
10
299.767380
20
501.227034
30
0.0
10
299.458179
20
501.951627
30
0.0
10
299.009928
20
502.451452
30
0.0
10
298.477517
20
502.637778
30
0.0
10
297.767460
20
502.279548
30
0.0
10
296.903249
20
501.389581
30
0.0
10
296.110534
20
500.244958
30
0.0
10
295.614965
20
499.122762
30
0.0
10
295.086407
20
497.509451
30
0.0
10
294.756766
20
496.966449
30
0.0
10
294.315504
20
496.551095
30
0.0
10
292.893986
20
495.958967
30
0.0
10
290.413581
20
495.444343
30
0.0
10
287.139403
20
494.712676
30
0.0
10
286.326554
20
494.334194
30
0.0
10
286.064752
20
493.893903
30
0.0
10
286.355163
20
493.351768
30
0.0
10
287.198953
20
492.667757
30
0.0
10
290.551334
20
490.713971
30
0.0
10
291.508447
20
490.104442
30
0.0
10
291.929933
20
489.438031
30
0.0
10
291.879190
20
488.428077
30
0.0
10
291.419619
20
486.787921
30
0.0
10
290.994790
20
485.014814
30
0.0
10
290.856226
20
483.396649
30
0.0
10
291.003590
20
482.048599
30
0.0
10
291.436552
20
481.085838
30
0.0
10
291.855946
20
480.578996
30
0.0
10
292.172348
20
480.398786
30
0.0
10
292.563447
20
480.533878
30
0.0
10
293.206932
20
480.972941
30
0.0
10
293.206847
20
480.972941
30
0.0
62
0
0
LWPOLYLINE
100
AcDbPolyline
8
Layer_1
90
51
70
0
10
399.073483
20
263.959340
30
0.0
10
399.047169
20
264.592423
30
0.0
10
399.208748
20
265.345132
30
0.0
10
399.518828
20
266.092206
30
0.0
10
399.938014
20
266.708382
30
0.0
10
400.085278
20
266.978591
30
0.0
10
399.960596
20
267.288779
30
0.0
10
398.577816
20
268.431320
30
0.0
10
394.408156
20
271.191129
30
0.0
10
390.334867
20
273.563757
30
0.0
10
388.641534
20
274.627368
30
0.0
10
387.773037
20
275.154609
30
0.0
10
386.477566
20
275.722278
30
0.0
10
385.114774
20
276.402139
30
0.0
10
383.791135
20
277.313919
30
0.0
10
382.856582
20
278.181831
30
0.0
10
382.644567
20
278.513153
30
0.0
10
382.661047
20
278.730089
30
0.0
10
383.286698
20
278.659047
30
0.0
10
384.503683
20
278.105849
30
0.0
10
385.988542
20
277.240347
30
0.0
10
387.417818
20
276.232394
30
0.0
10
389.014208
20
275.166667
30
0.0
10
390.398593
20
274.343622
30
0.0
10
392.665536
20
272.934714
30
0.0
10
393.881776
20
272.473853
30
0.0
10
395.358373
20
272.141068
30
0.0
10
399.708169
20
271.756775
30
0.0
10
406.945987
20
271.575925
30
0.0
10
414.759045
20
271.380560
30
0.0
10
415.989979
20
271.250865
30
0.0
10
416.113707
20
271.168083
30
0.0
10
415.977098
20
271.069562
30
0.0
10
415.204896
20
270.605444
30
0.0
10
414.481123
20
269.976120
30
0.0
10
413.477396
20
269.279896
30
0.0
10
411.966918
20
268.665480
30
0.0
10
409.266588
20
267.560778
30
0.0
10
408.027396
20
267.042889
30
0.0
10
406.277431
20
266.557534
30
0.0
10
402.403010
20
265.520061
30
0.0
10
401.068847
20
265.028839
30
0.0
10
400.454820
20
264.659646
30
0.0
10
400.459550
20
264.345420
30
0.0
10
400.733966
20
264.015530
30
0.0
10
401.103158
20
263.688333
30
0.0
10
401.146761
20
263.471117
30
0.0
10
400.218035
20
263.313333
30
0.0
10
399.398903
20
263.441931
30
0.0
10
399.073483
20
263.959340
30
0.0
10
399.073483
20
263.959340
30
0.0
62
0
0
LWPOLYLINE
100
AcDbPolyline
8
Layer_1
90
11
70
0
10
419.951577
20
264.310086
30
0.0
10
420.451944
20
264.584041
30
0.0
10
420.962875
20
264.710965
30
0.0
10
421.360368
20
264.678033
30
0.0
10
421.520422
20
264.472420
30
0.0
10
421.396672
20
264.244341
30
0.0
10
421.065025
20
264.055285
30
0.0
10
420.015670
20
263.886752
30
0.0
10
419.558068
20
263.949617
30
0.0
10
419.951577
20
264.310086
30
0.0
10
419.951577
20
264.310086
30
0.0
62
0
0
LWPOLYLINE
100
AcDbPolyline
8
Layer_1
90
252
70
0
10
401.482645
20
277.592480
30
0.0
10
398.633611
20
278.975566
30
0.0
10
396.789692
20
279.885289
30
0.0
10
394.800003
20
281.151002
30
0.0
10
392.910475
20
282.600563
30
0.0
10
391.367038
20
284.061831
30
0.0
10
388.598685
20
287.510312
30
0.0
10
387.582533
20
289.083769
30
0.0
10
386.979809
20
290.317061
30
0.0
10
385.745708
20
293.102679
30
0.0
10
384.816805
20
295.476007
30
0.0
10
384.355665
20
298.322270
30
0.0
10
384.316418
20
302.263701
30
0.0
10
384.653197
20
307.922535
30
0.0
10
385.007386
20
312.597292
30
0.0
10
386.501527
20
315.401424
30
0.0
10
389.261423
20
320.088011
30
0.0
10
390.614801
20
321.937604
30
0.0
10
392.027533
20
323.536822
30
0.0
10
393.557422
20
324.944730
30
0.0
10
395.262269
20
326.220399
30
0.0
10
397.199874
20
327.422895
30
0.0
10
399.428039
20
328.611286
30
0.0
10
401.648253
20
329.504978
30
0.0
10
404.372741
20
330.042181
30
0.0
10
407.610469
20
330.619276
30
0.0
10
408.135263
20
330.915711
30
0.0
10
408.255978
20
331.324853
30
0.0
10
408.139616
20
331.675278
30
0.0
10
407.808525
20
331.976853
30
0.0
10
406.610118
20
332.411130
30
0.0
10
404.876687
20
332.583030
30
0.0
10
402.824160
20
332.447900
30
0.0
10
396.879332
20
331.275577
30
0.0
10
390.968625
20
329.766027
30
0.0
10
388.252003
20
328.762090
30
0.0
10
385.329971
20
327.408549
30
0.0
10
382.322960
20
325.783489
30
0.0
10
379.351406
20
323.964999
30
0.0
10
376.535742
20
322.031162
30
0.0
10
373.996401
20
320.060068
30
0.0
10
371.853817
20
318.129801
30
0.0
10
370.228424
20
316.318448
30
0.0
10
368.498691
20
313.683417
30
0.0
10
367.118590
20
310.795949
30
0.0
10
366.166075
20
307.850966
30
0.0
10
365.719106
20
305.043388
30
0.0
10
365.696834
20
303.137789
30
0.0
10
365.949787
20
301.542686
30
0.0
10
366.551599
20
299.986610
30
0.0
10
367.575902
20
298.198088
30
0.0
10
369.811864
20
294.204503
30
0.0
10
372.555064
20
289.533037
30
0.0
10
374.106576
20
287.268886
30
0.0
10
375.482922
20
285.505144
30
0.0
10
376.283485
20
284.493748
30
0.0
10
376.534539
20
283.991135
30
0.0
10
375.972070
20
284.122613
30
0.0
10
374.548735
20
284.923858
30
0.0
10
368.588318
20
288.861190
30
0.0
10
364.996485
20
291.371180
30
0.0
10
362.724450
20
293.143499
30
0.0
10
361.483553
20
294.429445
30
0.0
10
360.985139
20
295.480317
30
0.0
10
360.371715
20
296.833195
30
0.0
10
359.173752
20
298.825158
30
0.0
10
356.487645
20
302.920993
30
0.0
10
355.523951
20
304.698028
30
0.0
10
354.197581
20
307.609018
30
0.0
10
350.560894
20
316.592797
30
0.0
10
349.204044
20
319.716506
30
0.0
10
348.605614
20
320.461618
30
0.0
10
347.764495
20
321.144025
30
0.0
10
343.613165
20
323.834488
30
0.0
10
338.951401
20
326.470828
30
0.0
10
336.960055
20
327.776836
30
0.0
10
334.576956
20
329.704869
30
0.0
10
328.373250
20
335.818939
30
0.0
10
323.021988
20
341.566613
30
0.0
10
322.397829
20
342.884555
30
0.0
10
321.759128
20
344.953280
30
0.0
10
320.973034
20
347.538044
30
0.0
10
319.994449
20
350.096667
30
0.0
10
317.706276
20
356.052346
30
0.0
10
316.533756
20
359.468053
30
0.0
10
316.537989
20
364.095679
30
0.0
10
316.618380
20
367.485997
30
0.0
10
316.805028
20
369.138764
30
0.0
10
317.000093
20
369.378652
30
0.0
10
317.173419
20
369.218295
30
0.0
10
317.816004
20
366.895493
30
0.0
10
318.216134
20
365.446018
30
0.0
10
318.571150
20
364.585550
30
0.0
10
318.964017
20
364.172847
30
0.0
10
319.477700
20
364.066667
30
0.0
10
320.256210
20
364.351785
30
0.0
10
321.078719
20
365.181586
30
0.0
10
321.915854
20
366.517735
30
0.0
10
322.738242
20
368.321900
30
0.0
10
325.004684
20
373.380000
30
0.0
10
327.080965
20
378.059978
30
0.0
10
328.423377
20
380.787101
30
0.0
10
330.378379
20
383.813490
30
0.0
10
332.544941
20
386.575890
30
0.0
10
334.522036
20
388.511045
30
0.0
10
339.159695
20
391.098244
30
0.0
10
343.415338
20
393.133995
30
0.0
10
343.564299
20
393.096794
30
0.0
10
343.596691
20
392.968591
30
0.0
10
343.252287
20
392.357485
30
0.0
10
340.510396
20
389.144600
30
0.0
10
337.969415
20
386.100928
30
0.0
10
336.236705
20
383.681111
30
0.0
10
334.173858
20
380.576667
30
0.0
10
333.285831
20
379.349668
30
0.0
10
332.644260
20
378.007891
30
0.0
10
332.061749
20
376.045501
30
0.0
10
331.350902
20
372.956667
30
0.0
10
330.655486
20
369.449162
30
0.0
10
330.457489
20
366.960616
30
0.0
10
330.776874
20
364.711866
30
0.0
10
331.633604
20
361.923753
30
0.0
10
332.741543
20
358.903675
30
0.0
10
333.789927
20
356.819539
30
0.0
10
335.122393
20
355.126118
30
0.0
10
337.082582
20
353.278186
30
0.0
10
338.959276
20
351.713788
30
0.0
10
340.412747
20
350.793145
30
0.0
10
341.774843
20
350.356261
30
0.0
10
343.377407
20
350.243140
30
0.0
10
345.613221
20
350.479915
30
0.0
10
347.713649
20
351.265991
30
0.0
10
349.862396
20
352.697217
30
0.0
10
352.243164
20
354.869440
30
0.0
10
354.179579
20
356.971131
30
0.0
10
355.256648
20
358.422222
30
0.0
10
357.798257
20
363.990721
30
0.0
10
359.101362
20
367.171111
30
0.0
10
359.715110
20
370.548352
30
0.0
10
360.109350
20
372.653207
30
0.0
10
360.594458
20
374.358352
30
0.0
10
361.706668
20
378.151192
30
0.0
10
362.390372
20
380.579434
30
0.0
10
363.265653
20
382.756603
30
0.0
10
364.437759
20
384.905076
30
0.0
10
366.011940
20
387.247234
30
0.0
10
368.124543
20
389.918054
30
0.0
10
370.351791
20
392.268226
30
0.0
10
372.539764
20
394.150209
30
0.0
10
374.534543
20
395.416464
30
0.0
10
376.197901
20
396.120534
30
0.0
10
376.627213
20
396.088056
30
0.0
10
377.064863
20
395.846207
30
0.0
10
377.775893
20
395.162950
30
0.0
10
376.375422
20
393.623786
30
0.0
10
375.249525
20
392.451483
30
0.0
10
374.548700
20
391.416207
30
0.0
10
374.208052
20
390.389477
30
0.0
10
374.162687
20
389.242814
30
0.0
10
374.452894
20
388.103732
30
0.0
10
374.759432
20
387.821047
30
0.0
10
375.189094
20
387.729738
30
0.0
10
376.464292
20
388.121663
30
0.0
10
378.371495
20
389.280335
30
0.0
10
380.722537
20
390.657599
30
0.0
10
381.399401
20
390.783074
30
0.0
10
381.881662
20
390.584315
30
0.0
10
382.298113
20
389.958953
30
0.0
10
382.253448
20
389.166464
30
0.0
10
381.751265
20
388.218325
30
0.0
10
380.795163
20
387.126012
30
0.0
10
379.572005
20
385.660089
30
0.0
10
378.673670
20
384.000551
30
0.0
10
378.118257
20
382.190589
30
0.0
10
377.923862
20
380.273391
30
0.0
10
378.069539
20
378.851093
30
0.0
10
378.644393
20
377.615312
30
0.0
10
379.836113
20
376.294469
30
0.0
10
381.832386
20
374.616980
30
0.0
10
386.245252
20
371.394511
30
0.0
10
390.874017
20
368.482626
30
0.0
10
395.335344
20
366.104416
30
0.0
10
399.245892
20
364.482973
30
0.0
10
401.956097
20
363.440864
30
0.0
10
405.124031
20
362.001287
30
0.0
10
408.416785
20
360.324802
30
0.0
10
411.501449
20
358.571969
30
0.0
10
415.469138
20
355.855726
30
0.0
10
419.438991
20
352.499320
30
0.0
10
423.462269
20
348.455288
30
0.0
10
427.590232
20
343.676168
30
0.0
10
430.428934
20
339.935645
30
0.0
10
432.688541
20
336.391560
30
0.0
10
434.419522
20
332.955637
30
0.0
10
435.672343
20
329.539600
30
0.0
10
436.449710
20
327.407799
30
0.0
10
437.467446
20
325.120000
30
0.0
10
439.154118
20
321.168889
30
0.0
10
440.570168
20
317.358889
30
0.0
10
441.351843
20
314.938339
30
0.0
10
441.696320
20
311.996667
30
0.0
10
441.990949
20
309.360662
30
0.0
10
442.436730
20
307.541224
30
0.0
10
442.715790
20
306.626167
30
0.0
10
442.877074
20
305.359100
30
0.0
10
442.969227
20
300.036625
30
0.0
10
442.877688
20
294.864208
30
0.0
10
442.741127
20
293.455219
30
0.0
10
442.524360
20
292.497623
30
0.0
10
442.106805
20
290.433435
30
0.0
10
441.727562
20
287.416071
30
0.0
10
441.272313
20
283.999407
30
0.0
10
440.900653
20
283.075834
30
0.0
10
440.267429
20
282.069258
30
0.0
10
439.401857
20
280.917551
30
0.0
10
438.877004
20
280.466546
30
0.0
10
438.695836
20
280.695084
30
0.0
10
438.543496
20
281.307073
30
0.0
10
438.327490
20
283.638576
30
0.0
10
438.265485
20
292.431837
30
0.0
10
438.393530
20
299.960340
30
0.0
10
437.692123
20
300.616281
30
0.0
10
437.105978
20
301.231513
30
0.0
10
436.677664
20
301.908517
30
0.0
10
435.880566
20
304.286581
30
0.0
10
434.953438
20
306.865923
30
0.0
10
434.080214
20
308.807838
30
0.0
10
433.575785
20
309.887892
30
0.0
10
433.051712
20
310.621511
30
0.0
10
432.686451
20
310.900028
30
0.0
10
432.399091
20
310.953233
30
0.0
10
432.177767
20
310.715776
30
0.0
10
432.010612
20
310.122305
30
0.0
10
431.791344
20
307.605923
30
0.0
10
431.646358
20
302.881284
30
0.0
10
431.504818
20
298.079370
30
0.0
10
431.243373
20
295.165194
30
0.0
10
430.680452
20
293.025687
30
0.0
10
429.634481
20
290.547778
30
0.0
10
428.567953
20
288.490234
30
0.0
10
427.219660
20
286.484935
30
0.0
10
425.552661
20
284.482790
30
0.0
10
423.530014
20
282.434707
30
0.0
10
421.804243
20
280.867414
30
0.0
10
420.398557
20
279.796113
30
0.0
10
418.927292
20
278.965901
30
0.0
10
417.004782
20
278.121872
30
0.0
10
414.323671
20
277.019710
30
0.0
10
408.538116
20
276.929765
30
0.0
10
402.752560
20
276.839793
30
0.0
10
401.482560
20
277.592480
30
0.0
10
401.482645
20
277.592480
30
0.0
62
0
0
LWPOLYLINE
100
AcDbPolyline
8
Layer_1
90
25
70
0
10
406.863409
20
309.607712
30
0.0
10
407.154613
20
309.856729
30
0.0
10
407.319388
20
310.354574
30
0.0
10
407.409311
20
312.952271
30
0.0
10
407.349856
20
315.161144
30
0.0
10
407.134751
20
316.626476
30
0.0
10
406.708890
20
317.554001
30
0.0
10
406.017166
20
318.149450
30
0.0
10
405.318438
20
318.433073
30
0.0
10
404.451871
20
318.585733
30
0.0
10
402.447633
20
318.529737
30
0.0
10
400.469282
20
318.044619
30
0.0
10
399.635073
20
317.660876
30
0.0
10
398.981648
20
317.193535
30
0.0
10
398.533959
20
316.527307
30
0.0
10
398.378200
20
315.666092
30
0.0
10
398.695658
20
312.596784
30
0.0
10
399.209712
20
310.186776
30
0.0
10
399.618919
20
309.934293
30
0.0
10
400.434840
20
309.714332
30
0.0
10
402.786254
20
309.409850
30
0.0
10
405.262821
20
309.349064
30
0.0
10
406.235183
20
309.433725
30
0.0
10
406.863409
20
309.607712
30
0.0
10
406.863409
20
309.607712
30
0.0
  0
ENDSEC
  0
SECTION
  2
OBJECTS
  0
DICTIONARY
  5
C
330
0
100
AcDbDictionary
  3
ACAD_GROUP
350
D
  3
ACAD_MLINESTYLE
350
17
  0
DICTIONARY
  5
D
330
C
100
AcDbDictionary
  0
DICTIONARY
  5
1A
330
C
100
AcDbDictionary
  0
DICTIONARY
  5
17
330
C
100
AcDbDictionary
  3
STANDARD
350
18
  0
DICTIONARY
  5
19
330
C
100
AcDbDictionary
  0
ENDSEC
  0
EOF
